<svg width="93" height="26" viewBox="0 0 93 26" fill="none" xmlns="http://www.w3.org/2000/svg">
<path d="M90.4218 25.2796C90.2736 25.5126 89.9645 25.5813 89.7316 25.433L85.9351 23.0171C85.7021 22.8688 85.6334 22.5598 85.7817 22.3268C85.9299 22.0938 86.239 22.0251 86.472 22.1734L89.8466 24.3209L91.9941 20.9463C92.1424 20.7133 92.4514 20.6446 92.6844 20.7929C92.9173 20.9411 92.986 21.2502 92.8378 21.4831L90.4218 25.2796ZM0.803041 6.55158C18.4272 -1.00157 39.7919 -0.992779 57.2405 3.14968C65.968 5.22168 73.7421 8.33378 79.5973 12.0742C85.4359 15.8039 89.4454 20.2105 90.4881 24.9027L89.5119 25.1196C88.5546 20.8118 84.8141 16.5934 79.059 12.9169C73.3204 9.251 65.657 6.17562 57.0095 4.12263C39.7081 0.0151239 18.5728 0.0239549 1.19696 7.47072L0.803041 6.55158Z" fill="#D9D9D9"/>
</svg>
