<svg width="94" height="84" viewBox="0 0 94 84" fill="none" xmlns="http://www.w3.org/2000/svg">
<path d="M4.68437 0.69677C4.51674 0.477325 4.20296 0.435326 3.98352 0.602959L0.407516 3.33466C0.18808 3.5023 0.14608 3.81609 0.313713 4.03552C0.481339 4.25497 0.795128 4.29697 1.01456 4.12933L4.19323 1.70115L6.62141 4.87981C6.78905 5.09925 7.10284 5.14125 7.32227 4.97362C7.54172 4.80599 7.58372 4.4922 7.41608 4.27277L4.68437 0.69677ZM92.9228 81.3044C58.3721 86.7057 35.0556 76.4219 21.0196 59.9554C6.96201 43.4636 2.15449 20.7015 4.78262 1.06662L3.79146 0.93396C1.13255 20.7988 5.98573 43.8598 20.2585 60.6041C34.5529 77.3737 58.2363 87.7391 93.0772 82.2924L92.9228 81.3044Z" fill="white"/>
</svg>
