<svg width="55" height="55" viewBox="0 0 55 55" fill="none" xmlns="http://www.w3.org/2000/svg">
<path fill-rule="evenodd" clip-rule="evenodd" d="M27.5 54.0152C42.1439 54.0152 54.0152 42.1439 54.0152 27.5C54.0152 12.8561 42.1439 0.984805 27.5 0.984805C12.8561 0.984805 0.984805 12.8561 0.984805 27.5C0.984805 42.1439 12.8561 54.0152 27.5 54.0152ZM27.5 55C42.6878 55 55 42.6878 55 27.5C55 12.3122 42.6878 0 27.5 0C12.3122 0 0 12.3122 0 27.5C0 42.6878 12.3122 55 27.5 55Z" fill="#181818"/>
<path fill-rule="evenodd" clip-rule="evenodd" d="M21.3353 32.742C20.9288 33.1033 20.3064 33.0667 19.945 32.6602L15.4539 27.6077L19.9121 22.0351C20.2518 21.6104 20.8716 21.5415 21.2963 21.8813C21.721 22.221 21.7898 22.8408 21.4501 23.2655L18.8281 26.5429L38.8781 26.0973C39.4218 26.0852 39.8724 26.5162 39.8845 27.06C39.8966 27.6038 39.4656 28.0544 38.9218 28.0664L18.8926 28.5115L21.4171 31.3516C21.7785 31.7581 21.7419 32.3806 21.3353 32.742Z" fill="#181818"/>
</svg>
