<svg width="110" height="85" viewBox="0 0 110 85" fill="none" xmlns="http://www.w3.org/2000/svg">
<path d="M0.674011 3.1205C0.464684 3.30061 0.441002 3.6163 0.621109 3.82562L3.55612 7.23674C3.73623 7.44606 4.05192 7.46975 4.26125 7.28964C4.47057 7.10954 4.49426 6.79384 4.31415 6.58452L1.70525 3.55241L4.73735 0.943512C4.94667 0.763405 4.97036 0.447716 4.79025 0.238388C4.61015 0.029068 4.29445 0.00537872 4.08513 0.185486L0.674011 3.1205ZM103.832 84.0578C109.428 74.8641 110.394 65.5014 107.51 56.5578C104.632 47.6321 97.9352 39.1678 88.2849 31.7037C68.9859 16.777 37.7575 5.75576 1.03753 3.00092L0.962715 3.99811C37.5514 6.74312 68.5731 17.7219 87.6731 32.4948C97.2222 39.8805 103.762 48.1909 106.559 56.8647C109.35 65.5207 108.429 74.5825 102.977 83.5379L103.832 84.0578Z" fill="white"/>
</svg>
