<svg width="30" height="30" viewBox="0 0 30 30" fill="none" xmlns="http://www.w3.org/2000/svg">
<path fill-rule="evenodd" clip-rule="evenodd" d="M14.9988 3.46191C15.4818 3.46191 15.8734 3.85696 15.8734 4.34427V16.4165L20.8175 11.9498C21.1773 11.6247 21.7302 11.6555 22.0524 12.0185C22.3746 12.3815 22.3441 12.9393 21.9843 13.2644L15.5849 19.046C15.4298 19.1874 15.2243 19.2734 14.9988 19.2734C14.7733 19.2734 14.5678 19.1874 14.4127 19.046L8.01328 13.2644C7.65345 12.9393 7.62296 12.3815 7.94518 12.0185C8.2674 11.6555 8.82031 11.6247 9.18014 11.9498L14.1242 16.4165V4.34427C14.1242 3.85696 14.5158 3.46191 14.9988 3.46191ZM6.92188 23.3488C6.92188 22.8615 7.31343 22.4664 7.79645 22.4664H22.2012C22.6842 22.4664 23.0757 22.8615 23.0757 23.3488C23.0757 23.8361 22.6842 24.2311 22.2012 24.2311H7.79645C7.31343 24.2311 6.92188 23.8361 6.92188 23.3488Z" fill="black"/>
</svg>
