<svg width="55" height="55" viewBox="0 0 55 55" fill="none" xmlns="http://www.w3.org/2000/svg">
<path fill-rule="evenodd" clip-rule="evenodd" d="M27.5 0.9848C12.8561 0.984799 0.984806 12.8561 0.984805 27.5C0.984803 42.1439 12.8561 54.0152 27.5 54.0152C42.1439 54.0152 54.0152 42.1439 54.0152 27.5C54.0152 12.8561 42.1439 0.984801 27.5 0.9848ZM27.5 -2.40413e-06C12.3122 -3.73189e-06 3.73189e-06 12.3122 2.40413e-06 27.5C1.07636e-06 42.6878 12.3122 55 27.5 55C42.6878 55 55 42.6878 55 27.5C55 12.3122 42.6878 -1.07636e-06 27.5 -2.40413e-06Z" fill="#181818"/>
<path fill-rule="evenodd" clip-rule="evenodd" d="M33.6647 22.258C34.0712 21.8967 34.6936 21.9333 35.055 22.3398L39.5461 27.3923L35.0879 32.9649C34.7482 33.3897 34.1284 33.4585 33.7037 33.1187C33.279 32.779 33.2102 32.1592 33.5499 31.7345L36.1719 28.4571L16.1219 28.9027C15.5782 28.9148 15.1276 28.4838 15.1155 27.94C15.1034 27.3962 15.5344 26.9456 16.0782 26.9336L36.1074 26.4885L33.5829 23.6484C33.2215 23.2419 33.2581 22.6194 33.6647 22.258Z" fill="#181818"/>
</svg>
