<svg width="38" height="38" viewBox="0 0 38 38" fill="none" xmlns="http://www.w3.org/2000/svg">
<g clip-path="url(#clip0_274_2493)">
<path d="M19.0003 11.2908C17.9879 11.2908 16.9854 11.4902 16.0501 11.8776C15.1147 12.265 14.2649 12.8329 13.549 13.5488C12.8331 14.2646 12.2653 15.1145 11.8778 16.0498C11.4904 16.9851 11.291 17.9876 11.291 19C11.291 20.0124 11.4904 21.0149 11.8778 21.9502C12.2653 22.8856 12.8331 23.7354 13.549 24.4513C14.2649 25.1672 15.1147 25.735 16.0501 26.1224C16.9854 26.5099 17.9879 26.7093 19.0003 26.7093C21.0449 26.7093 23.0058 25.897 24.4515 24.4513C25.8973 23.0055 26.7095 21.0446 26.7095 19C26.7095 16.9554 25.8973 14.9945 24.4515 13.5488C23.0058 12.103 21.0449 11.2908 19.0003 11.2908ZM13.666 19C13.666 17.5853 14.228 16.2285 15.2284 15.2281C16.2287 14.2278 17.5855 13.6658 19.0003 13.6658C20.415 13.6658 21.7718 14.2278 22.7722 15.2281C23.7725 16.2285 24.3345 17.5853 24.3345 19C24.3345 20.4148 23.7725 21.7715 22.7722 22.7719C21.7718 23.7723 20.415 24.3343 19.0003 24.3343C17.5855 24.3343 16.2287 23.7723 15.2284 22.7719C14.228 21.7715 13.666 20.4148 13.666 19Z" fill="white"/>
<path d="M23.2653 3.18917C22.0137 -1.06208 15.9859 -1.06208 14.7343 3.18917L14.511 3.94679C14.4236 4.24356 14.2709 4.517 14.0641 4.74707C13.8573 4.97715 13.6016 5.15802 13.3158 5.27644C13.03 5.39486 12.7213 5.44783 12.4124 5.43145C12.1034 5.41507 11.8021 5.32977 11.5304 5.18179L10.8369 4.8018C6.94191 2.6833 2.68354 6.94404 4.80441 10.8367L5.18204 11.5302C5.33001 11.8019 5.41532 12.1032 5.43169 12.4121C5.44807 12.7211 5.39511 13.0298 5.27669 13.3156C5.15827 13.6014 4.97739 13.857 4.74731 14.0639C4.51724 14.2707 4.2438 14.4234 3.94704 14.5108L3.18941 14.734C-1.06184 15.9857 -1.06184 22.0134 3.18941 23.265L3.94704 23.4883C4.2438 23.5757 4.51724 23.7284 4.74731 23.9352C4.97739 24.142 5.15827 24.3977 5.27669 24.6835C5.39511 24.9693 5.44807 25.278 5.43169 25.587C5.41532 25.8959 5.33001 26.1972 5.18204 26.4689L4.80204 27.1624C2.68354 31.0574 6.94191 35.3182 10.8369 33.1949L11.5304 32.8173C11.8021 32.6693 12.1034 32.584 12.4124 32.5676C12.7213 32.5513 13.03 32.6042 13.3158 32.7226C13.6016 32.8411 13.8573 33.0219 14.0641 33.252C14.2709 33.4821 14.4236 33.7555 14.511 34.0523L14.7343 34.8099C15.9859 39.0612 22.0137 39.0612 23.2653 34.8099L23.4885 34.0523C23.5759 33.7555 23.7287 33.4821 23.9355 33.252C24.1423 33.0219 24.398 32.8411 24.6838 32.7226C24.9696 32.6042 25.2783 32.5513 25.5872 32.5676C25.8961 32.584 26.1975 32.6693 26.4692 32.8173L27.1627 33.1973C31.0577 35.3182 35.3184 31.055 33.1952 27.1624L32.8175 26.4689C32.6696 26.1972 32.5843 25.8959 32.5679 25.587C32.5515 25.278 32.6045 24.9693 32.7229 24.6835C32.8413 24.3977 33.0222 24.142 33.2523 23.9352C33.4823 23.7284 33.7558 23.5757 34.0525 23.4883L34.8102 23.265C39.0614 22.0134 39.0614 15.9857 34.8102 14.734L34.0525 14.5108C33.7558 14.4234 33.4823 14.2707 33.2523 14.0639C33.0222 13.857 32.8413 13.6014 32.7229 13.3156C32.6045 13.0298 32.5515 12.7211 32.5679 12.4121C32.5843 12.1032 32.6696 11.8019 32.8175 11.5302L33.1975 10.8367C35.3184 6.94167 31.0553 2.6833 27.1627 4.80417L26.4692 5.18179C26.1975 5.32977 25.8961 5.41507 25.5872 5.43145C25.2783 5.44783 24.9696 5.39486 24.6838 5.27644C24.398 5.15802 24.1423 4.97715 23.9355 4.74707C23.7287 4.517 23.5759 4.24356 23.4885 3.94679L23.2653 3.18917ZM17.0119 3.86129C17.5962 1.87817 20.4034 1.87817 20.9877 3.86129L21.2109 4.61892C21.3986 5.25562 21.7264 5.84225 22.1702 6.33581C22.6141 6.82936 23.1628 7.21732 23.7761 7.47125C24.3894 7.72517 25.0517 7.83863 25.7146 7.8033C26.3774 7.76796 27.024 7.58473 27.6068 7.26704L28.2979 6.88704C30.1124 5.90142 32.0979 7.88454 31.1099 9.70142L30.7323 10.3949C30.4151 10.9778 30.2323 11.6243 30.1973 12.287C30.1624 12.9497 30.2762 13.6118 30.5303 14.2248C30.7844 14.8378 31.1725 15.3862 31.6661 15.8298C32.1596 16.2734 32.7462 16.6009 33.3828 16.7884L34.138 17.0117C36.1212 17.5959 36.1212 20.4032 34.138 20.9874L33.3804 21.2107C32.7437 21.3983 32.1571 21.7261 31.6635 22.17C31.17 22.6139 30.782 23.1626 30.5281 23.7759C30.2742 24.3891 30.1607 25.0515 30.196 25.7143C30.2314 26.3772 30.4146 27.0237 30.7323 27.6065L31.1123 28.2977C32.0979 30.1122 30.1148 32.0977 28.2979 31.1097L27.6068 30.732C27.0238 30.4144 26.3771 30.2313 25.7141 30.1961C25.0512 30.1609 24.3887 30.2745 23.7754 30.5287C23.1621 30.7829 22.6134 31.1711 22.1697 31.6649C21.7259 32.1587 21.3983 32.7456 21.2109 33.3825L20.9877 34.1378C20.4034 36.1209 17.5962 36.1209 17.0119 34.1378L16.7887 33.3802C16.6009 32.7438 16.2732 32.1575 15.8295 31.6642C15.3858 31.1709 14.8373 30.7831 14.2244 30.5292C13.6114 30.2753 12.9493 30.1617 12.2868 30.1968C11.6242 30.2319 10.9779 30.4148 10.3952 30.732L9.70166 31.112C7.88716 32.0977 5.90166 30.1145 6.88966 28.2977L7.26729 27.6065C7.58542 27.0236 7.76901 26.3769 7.80458 25.7138C7.84014 25.0506 7.72679 24.3879 7.47283 23.7743C7.21887 23.1607 6.83075 22.6118 6.33695 22.1678C5.84315 21.7237 5.2562 21.3959 4.61916 21.2083L3.86154 20.985C1.87841 20.4008 1.87841 17.5935 3.86154 17.0093L4.61916 16.786C5.2552 16.5982 5.84119 16.2705 6.33425 15.827C6.82731 15.3835 7.21495 14.8353 7.46882 14.2226C7.72268 13.6099 7.83633 12.9482 7.80147 12.2859C7.7666 11.6237 7.58408 10.9776 7.26729 10.3949L6.88729 9.70142C5.90166 7.88692 7.88479 5.90142 9.70166 6.88942L10.3952 7.26704C10.9779 7.58429 11.6242 7.76716 12.2868 7.80226C12.9493 7.83736 13.6114 7.7238 14.2244 7.46991C14.8373 7.21601 15.3858 6.82821 15.8295 6.33491C16.2732 5.8416 16.6009 5.25529 16.7887 4.61892L17.0119 3.86129Z" fill="white"/>
</g>
<defs>
<clipPath id="clip0_274_2493">
<rect width="38" height="38" fill="white"/>
</clipPath>
</defs>
</svg>
