<svg width="18" height="11" viewBox="0 0 18 11" fill="none" xmlns="http://www.w3.org/2000/svg">
<path fill-rule="evenodd" clip-rule="evenodd" d="M18 0.589283C18 0.914735 17.7362 1.17857 17.4107 1.17857H0.589283C0.263831 1.17857 0 0.914735 0 0.589283C0 0.263831 0.263832 0 0.589283 0H17.4107C17.7362 0 18 0.263831 18 0.589283Z" fill="white"/>
<path fill-rule="evenodd" clip-rule="evenodd" d="M18 5.50042C18 5.82587 17.7362 6.0897 17.4107 6.0897H0.589283C0.263831 6.0897 0 5.82587 0 5.50042C0 5.17496 0.263832 4.91113 0.589283 4.91113H17.4107C17.7362 4.91113 18 5.17496 18 5.50042Z" fill="white"/>
<path fill-rule="evenodd" clip-rule="evenodd" d="M18 10.4106C18 10.736 17.7362 10.9999 17.4107 10.9999H0.589283C0.263831 10.9999 0 10.736 0 10.4106C0 10.0851 0.263832 9.82129 0.589283 9.82129H17.4107C17.7362 9.82129 18 10.0851 18 10.4106Z" fill="white"/>
</svg>
