<svg width="24" height="24" viewBox="0 0 24 24" fill="none" xmlns="http://www.w3.org/2000/svg">
<path d="M19.213 1.33918C19.4369 1.10249 19.7059 0.913079 20.0043 0.782149C20.3026 0.651219 20.6242 0.581426 20.9499 0.576896C21.2757 0.572365 21.5991 0.63319 21.9009 0.755773C22.2028 0.878356 22.477 1.06021 22.7074 1.29059C22.9378 1.52096 23.1196 1.79519 23.2422 2.09705C23.3648 2.39891 23.4256 2.72228 23.4211 3.04805C23.4166 3.37383 23.3468 3.69538 23.2158 3.99372C23.0849 4.29205 22.8955 4.56111 22.6588 4.785L15.5169 11.9269C15.5075 11.9363 15.5 11.9475 15.4949 11.9599C15.4897 11.9722 15.4871 11.9854 15.4871 11.9988C15.4871 12.0121 15.4897 12.0254 15.4949 12.0377C15.5 12.05 15.5075 12.0612 15.5169 12.0707L22.6588 19.2126C22.8882 19.4382 23.0707 19.707 23.1956 20.0035C23.3206 20.3 23.3857 20.6183 23.387 20.9401C23.3884 21.2619 23.326 21.5807 23.2035 21.8783C23.081 22.1758 22.9008 22.4461 22.6733 22.6737C22.4458 22.9012 22.1755 23.0815 21.878 23.2041C21.5805 23.3266 21.2617 23.3891 20.9399 23.3878C20.6181 23.3865 20.2998 23.3216 20.0033 23.1966C19.7067 23.0717 19.4379 22.8893 19.2122 22.66L12.0703 15.5181C12.0609 15.5087 12.0497 15.5012 12.0373 15.496C12.025 15.4909 12.0118 15.4883 11.9984 15.4883C11.985 15.4883 11.9718 15.4909 11.9595 15.496C11.9471 15.5012 11.9359 15.5087 11.9265 15.5181L4.78463 22.66C4.55899 22.8894 4.29017 23.0718 3.99367 23.1968C3.69716 23.3218 3.37885 23.3869 3.05709 23.3882C2.73532 23.3895 2.41647 23.3272 2.11894 23.2047C1.8214 23.0822 1.55106 22.902 1.32351 22.6745C1.09595 22.447 0.915698 22.1767 0.793134 21.8792C0.670569 21.5817 0.608122 21.2628 0.609394 20.9411C0.610666 20.6193 0.675633 20.301 0.800546 20.0045C0.925459 19.7079 1.10785 19.4391 1.33719 19.2134L8.47906 12.0715C8.48852 12.0621 8.49603 12.0509 8.50115 12.0385C8.50627 12.0262 8.5089 12.0129 8.5089 11.9996C8.5089 11.9862 8.50627 11.973 8.50115 11.9607C8.49603 11.9483 8.48852 11.9371 8.47906 11.9277L1.33719 4.78581C0.886164 4.32748 0.634515 3.70951 0.637057 3.06649C0.6396 2.42346 0.896127 1.80749 1.35076 1.35275C1.8054 0.89801 2.42131 0.641337 3.06433 0.638643C3.70735 0.63595 4.32538 0.887453 4.78381 1.33837L11.9257 8.48025C11.9351 8.4897 11.9463 8.49721 11.9587 8.50233C11.971 8.50745 11.9842 8.51008 11.9976 8.51008C12.011 8.51008 12.0242 8.50745 12.0365 8.50233C12.0489 8.49721 12.0601 8.4897 12.0695 8.48025L19.2114 1.33837L19.213 1.33918Z" fill="#5362F7"/>
</svg>
