<svg width="14" height="11" viewBox="0 0 14 11" fill="none" xmlns="http://www.w3.org/2000/svg">
<path fill-rule="evenodd" clip-rule="evenodd" d="M14 0.589283C14 0.914735 13.7362 1.17857 13.4107 1.17857H0.589283C0.263831 1.17857 0 0.914735 0 0.589283C0 0.263831 0.263831 0 0.589283 0H13.4107C13.7362 0 14 0.263831 14 0.589283Z" fill="#484848"/>
<path fill-rule="evenodd" clip-rule="evenodd" d="M14 5.49993C14 5.82538 13.7362 6.08921 13.4107 6.08921H0.589283C0.263831 6.08921 0 5.82538 0 5.49993C0 5.17448 0.263831 4.91064 0.589283 4.91064H13.4107C13.7362 4.91064 14 5.17448 14 5.49993Z" fill="#484848"/>
<path fill-rule="evenodd" clip-rule="evenodd" d="M14 10.4106C14 10.736 13.7362 10.9999 13.4107 10.9999H0.589283C0.263831 10.9999 0 10.736 0 10.4106C0 10.0851 0.263831 9.82129 0.589283 9.82129H13.4107C13.7362 9.82129 14 10.0851 14 10.4106Z" fill="#484848"/>
</svg>
