<svg width="38" height="38" viewBox="0 0 38 38" fill="none" xmlns="http://www.w3.org/2000/svg">
<g clip-path="url(#clip0_389_2198)">
<path d="M13.0254 0.964842C12.7731 1.06133 12.4317 1.49922 10.8731 3.68867L9.38868 5.77422L6.71681 6.62031C4.86134 7.19922 3.98556 7.51094 3.83712 7.64453C3.4215 7.98594 3.41407 8.05273 3.41407 11.1477V13.9977L1.74415 16.2539C0.697668 17.6789 0.0593872 18.6066 0.0296997 18.7551C0.00743408 18.8887 0.00743408 19.1113 0.0296997 19.2375C0.0593872 19.3934 0.697668 20.3211 1.74415 21.7461L3.41407 24.0023V26.8523C3.41407 29.9473 3.4215 30.0141 3.83712 30.3555C3.98556 30.4891 4.86134 30.8008 6.71681 31.3797L9.38868 32.2258L10.9621 34.4227C11.8231 35.6398 12.632 36.7234 12.7582 36.8422C13.1961 37.2652 13.3668 37.2355 16.3504 36.2336L19.0149 35.343L21.657 36.2262C23.1117 36.7086 24.418 37.1094 24.5516 37.1094C24.8707 37.1094 25.1602 36.9535 25.4274 36.6418C25.5461 36.5082 26.3106 35.4543 27.127 34.3113L28.6039 32.2332L31.2758 31.3871C33.1387 30.8008 34.0145 30.4891 34.1703 30.3555C34.5785 30.0141 34.586 29.9473 34.586 26.8523V24.0023L36.2559 21.7461C37.3024 20.3211 37.9406 19.3934 37.9703 19.2449C37.9926 19.1113 37.9926 18.8887 37.9703 18.7625C37.9406 18.6066 37.3024 17.6789 36.2559 16.2539L34.586 13.9977V11.1477C34.586 8.05273 34.5785 7.98594 34.1703 7.64453C34.0145 7.51094 33.1387 7.19922 31.2758 6.61289L28.6039 5.7668L27.0379 3.56992C26.177 2.36015 25.368 1.27656 25.2418 1.15781C24.8113 0.742186 24.6332 0.771873 21.6645 1.7664L19.0223 2.64961L16.3949 1.77383C13.827 0.912889 13.3965 0.808983 13.0254 0.964842ZM16.3652 4.15625C17.7086 4.60156 18.8961 4.97265 19 4.97265C19.1039 4.97265 20.2914 4.60898 21.6348 4.15625C22.9781 3.71094 24.0988 3.36953 24.1285 3.39922C24.1582 3.4289 24.8485 4.39375 25.6649 5.53672C26.8078 7.13242 27.216 7.65195 27.4016 7.74101C27.5352 7.80039 28.693 8.1789 29.9695 8.57969L32.2852 9.30703V11.927C32.2852 14.1609 32.3 14.5914 32.4039 14.777C32.4633 14.9031 33.1684 15.8828 33.9625 16.959C34.7567 18.0352 35.4024 18.948 35.4024 19C35.4024 19.052 34.7567 19.9648 33.9625 21.041C33.1684 22.1172 32.4633 23.0969 32.4039 23.223C32.3 23.4086 32.2852 23.8391 32.2852 26.0656V28.693L29.9695 29.4203C28.693 29.8211 27.5352 30.1996 27.4016 30.2664C27.216 30.348 26.8078 30.8602 25.6649 32.4633C24.8485 33.6062 24.1582 34.5711 24.1285 34.6008C24.0988 34.6305 22.9781 34.2891 21.6348 33.8437C20.2914 33.391 19.1039 33.0273 19 33.0273C18.8961 33.0273 17.7086 33.391 16.3652 33.8437C15.0219 34.2891 13.9012 34.6305 13.8715 34.6008C13.8418 34.5711 13.1516 33.6062 12.3352 32.4633C11.1922 30.8676 10.784 30.348 10.5985 30.2664C10.4649 30.1996 9.30704 29.8211 8.0379 29.4203L5.71486 28.6855V26.1027C5.71486 24.0914 5.69259 23.468 5.61095 23.2824C5.559 23.1488 4.85392 22.1469 4.05236 21.0633C3.25079 19.9797 2.59767 19.052 2.59767 19C2.59767 18.948 3.25079 18.0203 4.05236 16.9367C4.85392 15.8531 5.559 14.8512 5.61095 14.7176C5.69259 14.532 5.71486 13.9086 5.71486 11.8973V9.30703L8.0379 8.57969C9.30704 8.1789 10.4649 7.80039 10.5985 7.73359C10.784 7.65195 11.1996 7.125 12.3723 5.48476C13.2184 4.30469 13.9086 3.33984 13.9086 3.33984C13.916 3.33984 15.0219 3.70351 16.3652 4.15625Z" fill="white"/>
<path d="M24.8262 13.7975C24.7075 13.8717 22.8817 15.6604 20.7813 17.7682C18.6809 19.876 16.9293 21.5979 16.8848 21.5979C16.8403 21.5979 16.0239 20.8111 15.0664 19.8463C14.109 18.8889 13.2332 18.0502 13.1219 17.9908C12.6395 17.7385 11.9567 17.9537 11.6746 18.451C11.4668 18.8072 11.4594 19.1412 11.645 19.5049C11.8305 19.8611 16.15 24.1584 16.4246 24.2623C16.7215 24.3736 17.1223 24.3662 17.3969 24.2326C17.7606 24.0619 26.2438 15.5342 26.3848 15.2002C26.5332 14.8365 26.5258 14.5619 26.3551 14.2502C26.0657 13.6936 25.3309 13.4783 24.8262 13.7975Z" fill="white"/>
</g>
<defs>
<clipPath id="clip0_389_2198">
<rect width="38" height="38" fill="white"/>
</clipPath>
</defs>
</svg>
