<svg width="30" height="37" viewBox="0 0 30 37" fill="none" xmlns="http://www.w3.org/2000/svg">
<path d="M16.498 0.753876C14.2873 0.198875 12.2361 1.87313 12.0857 4.03762C11.9192 6.46575 11.5539 8.69731 11.096 10.027C10.8069 10.8595 9.98831 12.3673 8.691 13.8149C7.40294 15.2579 5.72638 16.5413 3.76306 17.0755C2.20906 17.501 0.625 18.8469 0.625 20.8125V30.0625C0.625 32.0166 2.20212 33.448 3.9735 33.6376C6.44788 33.8989 7.59025 34.5973 8.75575 35.3096L8.86675 35.3766C9.49575 35.7605 10.2034 36.1837 11.1099 36.4959C12.0279 36.815 13.1009 37 14.5 37H22.5938C24.7606 37 26.2914 35.8946 27.0661 34.5395C27.4454 33.8758 27.6535 33.1358 27.6535 32.4282C27.6535 32.0767 27.6003 31.7067 27.4754 31.3552C27.9403 30.7493 28.3542 30.0209 28.6039 29.2739C28.8583 28.5108 29.0017 27.5118 28.6132 26.6146C28.7727 26.3139 28.8907 25.9948 28.9809 25.6826C29.1589 25.0582 29.2422 24.3714 29.2422 23.7031C29.2422 23.0348 29.1589 22.348 28.9809 21.7236C28.8999 21.4461 28.7959 21.1594 28.6617 20.8842C29.5729 19.5638 29.6284 18.1092 29.2029 16.8766C28.7265 15.5076 27.6257 14.3329 26.4279 13.9351C24.4692 13.2807 22.2584 13.2969 20.6096 13.4472C20.2673 13.478 19.9258 13.5166 19.5852 13.5628C20.3879 10.1266 20.3387 6.54628 19.4418 3.13344C19.1227 1.95869 18.1699 1.17244 17.1016 0.904186L16.498 0.753876ZM22.5938 34.6875H14.5C13.3206 34.6875 12.5043 34.5303 11.8638 34.3106C11.2139 34.0863 10.6936 33.781 10.0693 33.4018L9.97675 33.3439C8.69331 32.5623 7.20638 31.6558 4.21862 31.3367C3.44856 31.2558 2.9375 30.6661 2.9375 30.0648V20.8125C2.9375 20.2228 3.46012 19.5568 4.37125 19.3094C6.90344 18.6156 8.94306 17.0038 10.4161 15.3573C11.8846 13.7154 12.8766 11.9464 13.279 10.7855C13.8409 9.16675 14.2202 6.697 14.3936 4.19487C14.4514 3.35775 15.2261 2.81894 15.9361 2.997L16.5419 3.14731C16.9119 3.23981 17.1386 3.48031 17.2079 3.737C18.1528 7.33603 18.0363 11.1315 16.8726 14.6659C16.8073 14.8623 16.7959 15.0726 16.8397 15.2749C16.8834 15.4772 16.9806 15.6641 17.1212 15.816C17.2617 15.9679 17.4405 16.0793 17.6388 16.1385C17.8371 16.1978 18.0477 16.2027 18.2486 16.1528H18.2555L18.2879 16.1436L18.422 16.1135C19.2128 15.9456 20.0127 15.8244 20.8178 15.7504C22.3509 15.6117 24.1871 15.6256 25.6971 16.1274C26.1018 16.2638 26.7377 16.8234 27.0152 17.6328C27.2627 18.3451 27.2164 19.1822 26.4001 19.9939L25.5838 20.8125L26.4001 21.6311C26.4996 21.7283 26.6429 21.9549 26.7563 22.3596C26.8673 22.7458 26.9297 23.2152 26.9297 23.7031C26.9297 24.1911 26.8673 24.6605 26.7563 25.0467C26.6406 25.4491 26.4996 25.678 26.4001 25.7751L25.5838 26.5938L26.4001 27.4124C26.5088 27.5211 26.6522 27.8194 26.4117 28.5409C26.1608 29.2375 25.7624 29.8717 25.2439 30.4001L24.4276 31.2188L25.2439 32.0374C25.2577 32.0489 25.3387 32.153 25.3387 32.4305C25.328 32.7689 25.2318 33.0991 25.0589 33.3902C24.675 34.0585 23.8957 34.6875 22.5938 34.6875Z" fill="#5362F7"/>
</svg>
