<svg width="26" height="26" viewBox="0 0 26 26" fill="none" xmlns="http://www.w3.org/2000/svg">
<path fill-rule="evenodd" clip-rule="evenodd" d="M13 5C11.4212 5.0433 9.91803 5.74681 8.8013 6.96507C7.68457 8.18332 7.03969 9.82313 7 11.5455C7.05597 12.603 7.32345 13.6345 7.78367 14.5673C7.79767 14.5964 7.813 14.6255 7.82967 14.6546C11.458 21 12.5387 21 13 21C13.7197 21 14.5 20.4473 16.3477 17.6291C17.3113 16.16 18.136 14.7164 18.1707 14.6546C18.1873 14.6255 18.2023 14.5964 18.2163 14.5673C18.6765 13.6344 18.944 12.603 19 11.5455C18.9603 9.82313 18.3154 8.18332 17.1987 6.96507C16.082 5.74681 14.5788 5.0433 13 5ZM17.3217 14.08C17.3217 14.08 13.9957 19.9091 13 19.9091C12.0127 19.9091 8.67833 14.08 8.67833 14.08C8.28824 13.298 8.0569 12.4336 8 11.5455C8 10.0988 8.52678 8.71145 9.46446 7.68852C10.4021 6.6656 11.6739 6.09091 13 6.09091C14.3261 6.09091 15.5979 6.6656 16.5355 7.68852C17.4732 8.71145 18 10.0988 18 11.5455C17.9431 12.4336 17.7118 13.298 17.3217 14.08ZM13 8.27273C12.4726 8.27273 11.957 8.44335 11.5185 8.76301C11.0799 9.08266 10.7382 9.53697 10.5363 10.0685C10.3345 10.6001 10.2817 11.185 10.3846 11.7493C10.4875 12.3136 10.7414 12.832 11.1144 13.2389C11.4873 13.6457 11.9625 13.9228 12.4798 14.035C12.997 14.1473 13.5332 14.0896 14.0205 13.8695C14.5078 13.6493 14.9242 13.2764 15.2173 12.798C15.5103 12.3196 15.6667 11.7572 15.6667 11.1818C15.6658 10.4106 15.3846 9.6712 14.8846 9.12584C14.3847 8.58049 13.707 8.27369 13 8.27273ZM13 13C12.6704 13 12.3481 12.8934 12.074 12.6936C11.8 12.4938 11.5863 12.2098 11.4602 11.8776C11.3341 11.5454 11.3011 11.1798 11.3654 10.8271C11.4297 10.4744 11.5884 10.1505 11.8215 9.89617C12.0546 9.6419 12.3515 9.46873 12.6749 9.39857C12.9982 9.32842 13.3333 9.36443 13.6378 9.50204C13.9423 9.63966 14.2026 9.8727 14.3858 10.1717C14.5689 10.4707 14.6667 10.8222 14.6667 11.1818C14.6667 11.664 14.4911 12.1265 14.1785 12.4675C13.866 12.8084 13.442 13 13 13Z" fill="#2781B9"/>
</svg>
