<svg width="38" height="38" viewBox="0 0 38 38" fill="none" xmlns="http://www.w3.org/2000/svg">
<path d="M19 11.291C17.9876 11.291 16.9851 11.4904 16.0498 11.8778C15.1145 12.2653 14.2646 12.8331 13.5488 13.549C12.8329 14.2649 12.265 15.1147 11.8776 16.0501C11.4902 16.9854 11.2908 17.9879 11.2908 19.0003C11.2908 20.0127 11.4902 21.0151 11.8776 21.9505C12.265 22.8858 12.8329 23.7357 13.5488 24.4515C14.2646 25.1674 15.1145 25.7353 16.0498 26.1227C16.9851 26.5101 17.9876 26.7095 19 26.7095C21.0446 26.7095 23.0055 25.8973 24.4513 24.4515C25.8971 23.0058 26.7093 21.0449 26.7093 19.0003C26.7093 16.9556 25.8971 14.9948 24.4513 13.549C23.0055 12.1032 21.0446 11.291 19 11.291ZM13.6658 19.0003C13.6658 17.5855 14.2278 16.2287 15.2281 15.2284C16.2285 14.228 17.5853 13.666 19 13.666C20.4148 13.666 21.7715 14.228 22.7719 15.2284C23.7723 16.2287 24.3343 17.5855 24.3343 19.0003C24.3343 20.415 23.7723 21.7718 22.7719 22.7721C21.7715 23.7725 20.4148 24.3345 19 24.3345C17.5853 24.3345 16.2285 23.7725 15.2281 22.7721C14.2278 21.7718 13.6658 20.415 13.6658 19.0003Z" fill="white"/>
<path d="M23.2651 3.18941C22.0135 -1.06184 15.9857 -1.06184 14.7341 3.18941L14.5108 3.94704C14.4234 4.2438 14.2707 4.51724 14.0639 4.74731C13.8571 4.97739 13.6014 5.15827 13.3156 5.27669C13.0298 5.39511 12.7211 5.44807 12.4122 5.43169C12.1032 5.41532 11.8019 5.33001 11.5302 5.18204L10.8367 4.80204C6.9417 2.68354 2.68333 6.94429 4.8042 10.8369L5.18183 11.5304C5.3298 11.8021 5.4151 12.1034 5.43148 12.4124C5.44786 12.7213 5.3949 13.03 5.27647 13.3158C5.15805 13.6016 4.97718 13.8573 4.7471 14.0641C4.51703 14.2709 4.24359 14.4236 3.94683 14.511L3.1892 14.7343C-1.06205 15.9859 -1.06205 22.0137 3.1892 23.2653L3.94683 23.4885C4.24359 23.5759 4.51703 23.7287 4.7471 23.9355C4.97718 24.1423 5.15805 24.398 5.27647 24.6838C5.3949 24.9696 5.44786 25.2783 5.43148 25.5872C5.4151 25.8961 5.3298 26.1975 5.18183 26.4692L4.80183 27.1627C2.68333 31.0577 6.9417 35.3184 10.8367 33.1952L11.5302 32.8175C11.8019 32.6696 12.1032 32.5843 12.4122 32.5679C12.7211 32.5515 13.0298 32.6045 13.3156 32.7229C13.6014 32.8413 13.8571 33.0222 14.0639 33.2523C14.2707 33.4823 14.4234 33.7558 14.5108 34.0525L14.7341 34.8102C15.9857 39.0614 22.0135 39.0614 23.2651 34.8102L23.4883 34.0525C23.5757 33.7558 23.7284 33.4823 23.9353 33.2523C24.1421 33.0222 24.3978 32.8413 24.6836 32.7229C24.9694 32.6045 25.2781 32.5515 25.587 32.5679C25.8959 32.5843 26.1973 32.6696 26.469 32.8175L27.1625 33.1975C31.0575 35.3184 35.3182 31.0553 33.195 27.1627L32.8173 26.4692C32.6693 26.1975 32.584 25.8961 32.5677 25.5872C32.5513 25.2783 32.6043 24.9696 32.7227 24.6838C32.8411 24.398 33.022 24.1423 33.252 23.9355C33.4821 23.7287 33.7556 23.5759 34.0523 23.4885L34.81 23.2653C39.0612 22.0137 39.0612 15.9859 34.81 14.7343L34.0523 14.511C33.7556 14.4236 33.4821 14.2709 33.252 14.0641C33.022 13.8573 32.8411 13.6016 32.7227 13.3158C32.6043 13.03 32.5513 12.7213 32.5677 12.4124C32.584 12.1034 32.6693 11.8021 32.8173 11.5304L33.1973 10.8369C35.3182 6.94191 31.0551 2.68354 27.1625 4.80441L26.469 5.18204C26.1973 5.33001 25.8959 5.41532 25.587 5.43169C25.2781 5.44807 24.9694 5.39511 24.6836 5.27669C24.3978 5.15827 24.1421 4.97739 23.9353 4.74731C23.7284 4.51724 23.5757 4.2438 23.4883 3.94704L23.2651 3.18941ZM17.0117 3.86154C17.596 1.87841 20.4032 1.87841 20.9875 3.86154L21.2107 4.61916C21.3984 5.25587 21.7262 5.8425 22.17 6.33605C22.6139 6.8296 23.1626 7.21756 23.7759 7.47149C24.3892 7.72542 25.0515 7.83887 25.7144 7.80354C26.3772 7.76821 27.0238 7.58498 27.6066 7.26729L28.2977 6.88729C30.1122 5.90166 32.0977 7.88479 31.1097 9.70166L30.7321 10.3952C30.4149 10.9781 30.2321 11.6245 30.1971 12.2872C30.1622 12.9499 30.2759 13.612 30.5301 14.2251C30.7842 14.8381 31.1723 15.3865 31.6659 15.8301C32.1594 16.2736 32.746 16.6012 33.3826 16.7887L34.1378 17.0119C36.1209 17.5962 36.1209 20.4034 34.1378 20.9877L33.3802 21.2109C32.7435 21.3986 32.1569 21.7264 31.6633 22.1702C31.1698 22.6141 30.7818 23.1628 30.5279 23.7761C30.2739 24.3894 30.1605 25.0517 30.1958 25.7146C30.2312 26.3774 30.4144 27.024 30.7321 27.6068L31.1121 28.2979C32.0977 30.1124 30.1146 32.0979 28.2977 31.1099L27.6066 30.7323C27.0236 30.4146 26.3769 30.2315 25.7139 30.1963C25.051 30.1611 24.3885 30.2748 23.7752 30.529C23.1619 30.7831 22.6132 31.1714 22.1694 31.6652C21.7257 32.159 21.3981 32.7459 21.2107 33.3828L20.9875 34.138C20.4032 36.1212 17.596 36.1212 17.0117 34.138L16.7885 33.3804C16.6007 32.744 16.273 32.1577 15.8293 31.6644C15.3856 31.1711 14.8371 30.7833 14.2241 30.5294C13.6111 30.2755 12.9491 30.162 12.2866 30.1971C11.624 30.2322 10.9777 30.415 10.3949 30.7323L9.70145 31.1123C7.88695 32.0979 5.90145 30.1148 6.88945 28.2979L7.26707 27.6068C7.58521 27.0239 7.7688 26.3771 7.80436 25.714C7.83993 25.0509 7.72658 24.3882 7.47262 23.7746C7.21866 23.161 6.83054 22.612 6.33674 22.168C5.84294 21.724 5.25598 21.3961 4.61895 21.2085L3.86133 20.9853C1.8782 20.401 1.8782 17.5938 3.86133 17.0095L4.61895 16.7863C5.25499 16.5984 5.84098 16.2708 6.33404 15.8272C6.8271 15.3837 7.21474 14.8355 7.4686 14.2228C7.72246 13.6102 7.83612 12.9485 7.80125 12.2862C7.76638 11.6239 7.58387 10.9778 7.26707 10.3952L6.88708 9.70166C5.90145 7.88716 7.88457 5.90166 9.70145 6.88966L10.3949 7.26729C10.9777 7.58453 11.624 7.7674 12.2866 7.8025C12.9491 7.8376 13.6111 7.72405 14.2241 7.47015C14.8371 7.21626 15.3856 6.82846 15.8293 6.33515C16.273 5.84185 16.6007 5.25554 16.7885 4.61916L17.0117 3.86154Z" fill="white"/>
</svg>
