<svg width="36" height="36" viewBox="0 0 36 36" fill="none" xmlns="http://www.w3.org/2000/svg">
<path d="M17.0343 23.2833L26.751 33C27.5843 33.8067 28.7013 34.2535 29.8611 34.2441C31.0209 34.2347 32.1305 33.7698 32.9506 32.9497C33.7708 32.1295 34.2357 31.0199 34.2451 29.8601C34.2545 28.7004 33.8077 27.5833 33.001 26.75L23.206 16.955M17.0343 23.2833L21.1943 18.2333C21.7226 17.5933 22.4276 17.19 23.2076 16.9567M17.0343 23.2833L9.27597 32.705C8.89996 33.1633 8.43214 33.5379 7.90263 33.8045C7.37312 34.0711 6.79365 34.2239 6.20152 34.2531C5.60939 34.2822 5.01772 34.1871 4.46459 33.9737C3.91146 33.7604 3.40912 33.4336 2.98991 33.0144C2.57071 32.5952 2.24392 32.0929 2.03058 31.5397C1.81724 30.9866 1.72208 30.3949 1.75123 29.8028C1.78037 29.2107 1.93317 28.6312 2.1998 28.1017C2.46642 27.5722 2.84096 27.1043 3.2993 26.7283L14.6943 17.345M23.2076 16.9567C24.1243 16.6833 25.146 16.6433 26.1126 16.7233C27.4157 16.8352 28.7253 16.6044 29.9116 16.0539C31.0979 15.5033 32.1197 14.6521 32.8754 13.5847C33.6311 12.5173 34.0946 11.2708 34.2198 9.969C34.3451 8.66717 34.1277 7.35521 33.5893 6.16333L28.1293 11.625C27.2158 11.4138 26.38 10.9503 25.717 10.2873C25.054 9.62431 24.5905 8.78849 24.3793 7.875L29.8393 2.415C28.6474 1.87661 27.3355 1.65924 26.0336 1.78447C24.7318 1.90971 23.4854 2.37318 22.418 3.12891C21.3506 3.88465 20.4994 4.90636 19.9488 6.09266C19.3982 7.27896 19.1674 8.58862 19.2793 9.89167C19.431 11.685 19.161 13.665 17.7726 14.8083L17.6026 14.95M14.6943 17.345L7.84931 10.5H5.50097L1.75097 4.25L4.25097 1.75L10.501 5.5V7.84833L17.601 14.9483M14.6926 17.3433L17.601 14.9483M28.626 28.625L24.251 24.25M6.11264 29.875H6.12597V29.8883H6.11264V29.875Z" stroke="#5362F7" stroke-width="2" stroke-linecap="round" stroke-linejoin="round"/>
</svg>
