<svg width="17" height="13" viewBox="0 0 17 13" fill="none" xmlns="http://www.w3.org/2000/svg">
<path fill-rule="evenodd" clip-rule="evenodd" d="M1.20099 1.70851L8.32 6.30027L15.439 1.7085C15.3196 1.34085 14.9473 1.06971 14.5116 1.06971H2.12837C1.69267 1.06971 1.32038 1.34085 1.20099 1.70851ZM15.4791 2.98842L8.65287 7.39131C8.45301 7.52023 8.18699 7.52023 7.98712 7.39131L1.16093 2.98842V10.5189C1.16093 11.0079 1.59761 11.4103 2.12837 11.4103H14.5116C15.0424 11.4103 15.4791 11.0079 15.4791 10.5189V2.98842ZM0 1.96114C0 0.881292 0.956441 0 2.12837 0H14.5116C15.6836 0 16.64 0.881292 16.64 1.96114V10.5189C16.64 11.5987 15.6836 12.48 14.5116 12.48H2.12837C0.956441 12.48 0 11.5987 0 10.5189V1.96114Z" fill="#2781B9"/>
</svg>
