<svg width="17" height="13" viewBox="0 0 17 13" fill="none" xmlns="http://www.w3.org/2000/svg">
<path fill-rule="evenodd" clip-rule="evenodd" d="M1.20099 2.20851L8.32 6.80027L15.439 2.2085C15.3196 1.84085 14.9473 1.56971 14.5116 1.56971H2.12837C1.69267 1.56971 1.32038 1.84085 1.20099 2.20851ZM15.4791 3.48842L8.65287 7.89131C8.45301 8.02023 8.18699 8.02023 7.98712 7.89131L1.16093 3.48842V11.0189C1.16093 11.5079 1.59761 11.9103 2.12837 11.9103H14.5116C15.0424 11.9103 15.4791 11.5079 15.4791 11.0189V3.48842ZM0 2.46114C0 1.38129 0.956441 0.5 2.12837 0.5H14.5116C15.6836 0.5 16.64 1.38129 16.64 2.46114V11.0189C16.64 12.0987 15.6836 12.98 14.5116 12.98H2.12837C0.956441 12.98 0 12.0987 0 11.0189V2.46114Z" fill="#2781B9"/>
</svg>
