<svg width="18" height="10" viewBox="0 0 18 10" fill="none" xmlns="http://www.w3.org/2000/svg">
<path d="M1.95985 1.15717C0.251849 2.65817 0.0078494 5.32517 1.41185 7.12517C2.82585 8.93717 5.40185 9.23217 7.16785 7.78317L12.0478 3.77917C12.2667 3.59939 12.5195 3.46546 12.7911 3.38536C13.0628 3.30525 13.3478 3.28061 13.6292 3.31289C13.9106 3.34517 14.1826 3.43371 14.4291 3.57326C14.6755 3.71281 14.8914 3.9005 15.0638 4.12517C15.8128 5.08517 15.6808 6.52517 14.7708 7.32517L13.7278 8.24117C13.3188 8.60117 13.2718 9.23117 13.6218 9.65117C13.9718 10.0712 14.5878 10.1192 14.9968 9.75917L16.0399 8.84317C17.7479 7.34117 17.9928 4.67717 16.5868 2.87517C15.1748 1.06517 12.5948 0.769174 10.8308 2.21717L5.95085 6.22117C5.73211 6.40122 5.47936 6.53538 5.20765 6.61564C4.93595 6.6959 4.65087 6.72062 4.36941 6.68833C4.08795 6.65604 3.81587 6.5674 3.5694 6.4277C3.32294 6.28799 3.10713 6.10008 2.93485 5.87517C2.18785 4.91717 2.31885 3.47517 3.22785 2.67517L3.76985 2.26017C4.17885 1.90017 4.22985 1.27017 3.87985 0.850174C3.79763 0.750611 3.69625 0.668581 3.58172 0.608951C3.46719 0.549322 3.34185 0.513308 3.21313 0.503048C3.08442 0.492788 2.95496 0.508491 2.83243 0.549225C2.7099 0.589959 2.5968 0.654893 2.49985 0.740173L1.95985 1.15717Z" fill="white"/>
</svg>
