<svg width="24" height="24" viewBox="0 0 24 24" fill="none" xmlns="http://www.w3.org/2000/svg">
<g clip-path="url(#clip0_1073_1471)">
<path d="M7.29415 6.2071L10.7941 9.7071C10.9166 9.82918 11.0687 9.91744 11.2354 9.96328C11.4021 10.0091 11.5779 10.011 11.7456 9.9687C11.9133 9.9264 12.0671 9.84138 12.1922 9.72193C12.3172 9.60248 12.4092 9.45267 12.4591 9.2871L13.9591 4.2871C14.011 4.11418 14.015 3.93045 13.9709 3.75541C13.9267 3.58037 13.836 3.42054 13.7084 3.29289C13.5807 3.16524 13.4209 3.07453 13.2458 3.03037C13.0708 2.98622 12.8871 2.99027 12.7141 3.0421L7.71414 4.5421C7.54895 4.59251 7.39957 4.68473 7.28048 4.80982C7.16139 4.93491 7.07662 5.08863 7.03437 5.2561C6.99213 5.42357 6.99384 5.59911 7.03935 5.76572C7.08487 5.93233 7.17263 6.08436 7.29415 6.2071V6.2071Z" fill="white"/>
<path d="M5.95985 9.15717C4.25185 10.6582 4.00785 13.3252 5.41185 15.1252C6.82585 16.9372 9.40185 17.2322 11.1678 15.7832L16.0478 11.7792C16.2667 11.5994 16.5195 11.4655 16.7911 11.3854C17.0628 11.3053 17.3478 11.2806 17.6292 11.3129C17.9106 11.3452 18.1826 11.4337 18.4291 11.5733C18.6755 11.7128 18.8914 11.9005 19.0638 12.1252C19.8128 13.0852 19.6808 14.5252 18.7708 15.3252L17.7278 16.2412C17.3188 16.6012 17.2718 17.2312 17.6218 17.6512C17.9718 18.0712 18.5878 18.1192 18.9968 17.7592L20.0399 16.8432C21.7479 15.3412 21.9928 12.6772 20.5868 10.8752C19.1748 9.06517 16.5948 8.76917 14.8308 10.2172L9.95085 14.2212C9.73211 14.4012 9.47936 14.5354 9.20765 14.6156C8.93595 14.6959 8.65087 14.7206 8.36941 14.6883C8.08795 14.656 7.81587 14.5674 7.5694 14.4277C7.32294 14.288 7.10713 14.1001 6.93485 13.8752C6.18785 12.9172 6.31885 11.4752 7.22785 10.6752L7.76985 10.2602C8.17885 9.90017 8.22985 9.27017 7.87985 8.85017C7.79763 8.75061 7.69625 8.66858 7.58172 8.60895C7.46719 8.54932 7.34185 8.51331 7.21313 8.50305C7.08442 8.49279 6.95496 8.50849 6.83243 8.54922C6.7099 8.58996 6.5968 8.65489 6.49985 8.74017L5.95985 9.15717V9.15717Z" fill="white"/>
<path d="M11 20C11 19.2044 11.3161 18.4413 11.8787 17.8787C12.4413 17.3161 13.2044 17 14 17C14.7956 17 15.5587 17.3161 16.1213 17.8787C16.6839 18.4413 17 19.2044 17 20C17 20.7956 16.6839 21.5587 16.1213 22.1213C15.5587 22.6839 14.7956 23 14 23C13.2044 23 12.4413 22.6839 11.8787 22.1213C11.3161 21.5587 11 20.7956 11 20Z" fill="white"/>
</g>
<defs>
<clipPath id="clip0_1073_1471">
<rect width="24" height="24" fill="white"/>
</clipPath>
</defs>
</svg>
