<svg width="19" height="19" viewBox="0 0 19 19" fill="none" xmlns="http://www.w3.org/2000/svg">
<path d="M3.16917 8.7077H1.58583C1.58583 4.64645 4.65196 1.5835 8.71875 1.5835V3.16683C5.503 3.16683 3.16917 5.4967 3.16917 8.7077Z" fill="white"/>
<path d="M8.70811 6.33312C7.04324 6.33312 6.33311 7.04324 6.33311 8.70812H4.74978C4.74978 6.15499 6.15499 4.74978 8.70811 4.74978V6.33312ZM5.99903 10.6422C6.15115 10.5039 6.35105 10.4302 6.55652 10.4365C6.76198 10.4429 6.95694 10.5288 7.10024 10.6762L8.99469 12.6245C9.45069 12.5374 10.3674 12.2516 11.3111 11.3103C12.2548 10.3659 12.5406 9.44674 12.6253 8.99391L10.6786 7.09866C10.531 6.95547 10.4449 6.76047 10.4386 6.55495C10.4322 6.34942 10.5061 6.14948 10.6445 5.99745L13.5697 2.78091C13.7082 2.6284 13.9007 2.53589 14.1064 2.52303C14.312 2.51017 14.5145 2.57797 14.6709 2.71203L16.3889 4.18532C16.5257 4.32269 16.6074 4.50551 16.6184 4.69912C16.6303 4.89703 16.8567 9.58528 13.2214 13.2222C10.05 16.3928 6.0774 16.6248 4.98332 16.6248C4.8234 16.6248 4.72524 16.62 4.69911 16.6184C4.50554 16.6076 4.32281 16.5256 4.18611 16.3881L2.71361 14.6694C2.57945 14.513 2.51152 14.3106 2.52423 14.1049C2.53694 13.8993 2.6293 13.7068 2.78169 13.5682L5.99903 10.6422V10.6422Z" fill="white"/>
</svg>
