<svg width="17" height="13" viewBox="0 0 17 13" fill="none" xmlns="http://www.w3.org/2000/svg">
<path d="M16.4154 3.81499V10.2607C16.4154 10.9179 16.164 11.5502 15.7126 12.0279C15.2613 12.5056 14.6443 12.7925 13.9881 12.8297L13.8424 12.8337H3.15495C2.49776 12.8337 1.86546 12.5823 1.38777 12.1309C0.910072 11.6796 0.623197 11.0625 0.58599 10.4064L0.582031 10.2607V3.81499L8.2232 7.81766C8.3082 7.86218 8.40274 7.88544 8.4987 7.88544C8.59466 7.88544 8.68919 7.86218 8.7742 7.81766L16.4154 3.81499ZM3.15495 0.166992H13.8424C14.4802 0.166915 15.0953 0.403697 15.5683 0.831412C16.0414 1.25913 16.3387 1.84729 16.4027 2.48183L8.4987 6.62224L0.594698 2.48183C0.656071 1.87249 0.932779 1.30503 1.37508 0.881442C1.81739 0.457857 2.39628 0.205932 3.0077 0.170951L3.15495 0.166992H13.8424H3.15495Z" fill="white"/>
</svg>
