<svg width="24" height="18" viewBox="0 0 24 18" fill="none" xmlns="http://www.w3.org/2000/svg">
<path fill-rule="evenodd" clip-rule="evenodd" d="M2.58674 2.99648L12.4438 9.35431L22.3009 2.99648C22.1356 2.48742 21.6201 2.112 21.0169 2.112H3.87081C3.26753 2.112 2.75205 2.48742 2.58674 2.99648ZM22.3564 4.76867L12.9047 10.865C12.628 11.0435 12.2597 11.0435 11.9829 10.865L2.53127 4.76867V15.1954C2.53127 15.8726 3.1359 16.4297 3.87081 16.4297H21.0169C21.7518 16.4297 22.3564 15.8726 22.3564 15.1954V4.76867ZM0.923828 3.34629C0.923828 1.85111 2.24813 0.630859 3.87081 0.630859H21.0169C22.6395 0.630859 23.9638 1.85111 23.9638 3.34629V15.1954C23.9638 16.6906 22.6395 17.9109 21.0169 17.9109H3.87081C2.24813 17.9109 0.923828 16.6906 0.923828 15.1954V3.34629Z" fill="#232C33"/>
</svg>
