<svg width="15" height="15" viewBox="0 0 15 15" fill="none" xmlns="http://www.w3.org/2000/svg">
<path d="M6.70835 4.33312C5.04348 4.33312 4.33335 5.04324 4.33335 6.70812H2.75002C2.75002 4.15499 4.15523 2.74978 6.70835 2.74978V4.33312ZM3.99927 8.64216C4.15139 8.50389 4.35129 8.43015 4.55676 8.43651C4.76223 8.44286 4.95719 8.5288 5.10048 8.6762L6.99494 10.6245C7.45094 10.5374 8.36769 10.2516 9.31135 9.31032C10.255 8.36587 10.5408 7.44674 10.6255 6.99391L8.67881 5.09866C8.53124 4.95547 8.44516 4.76047 8.43881 4.55495C8.43246 4.34942 8.50632 4.14948 8.64477 3.99745L11.57 0.780907C11.7085 0.628398 11.901 0.53589 12.1066 0.52303C12.3122 0.510169 12.5148 0.57797 12.6712 0.712032L14.3891 2.18532C14.526 2.32269 14.6077 2.50551 14.6187 2.69912C14.6306 2.89703 14.857 7.58528 11.2216 11.2222C8.05023 14.3928 4.07765 14.6248 2.98356 14.6248C2.82365 14.6248 2.72548 14.62 2.69935 14.6184C2.50578 14.6076 2.32306 14.5256 2.18635 14.3881L0.713853 12.6694C0.579694 12.513 0.511757 12.3106 0.524469 12.1049C0.537182 11.8993 0.629541 11.7068 0.781937 11.5682L3.99927 8.64216Z" fill="#484848"/>
</svg>
