<svg width="27" height="27" viewBox="0 0 27 27" fill="none" xmlns="http://www.w3.org/2000/svg">
<path d="M12.0413 7.66645C8.97438 7.66645 7.66625 8.97457 7.66625 12.0414H4.74959C4.74959 7.33832 7.33813 4.74978 12.0413 4.74978V7.66645ZM7.05084 15.6042C7.33106 15.3495 7.69929 15.2136 8.07779 15.2253C8.45628 15.237 8.81542 15.3953 9.07938 15.6669L12.5692 19.2558C13.4092 19.0954 15.0979 18.5689 16.8363 16.835C18.5746 15.0952 19.101 13.4021 19.2571 12.5679L15.671 9.07665C15.3992 8.81288 15.2406 8.45369 15.2289 8.07508C15.2172 7.69648 15.3533 7.32817 15.6083 7.04811L20.9969 1.1229C21.252 0.841966 21.6066 0.671556 21.9854 0.647866C22.3642 0.624176 22.7373 0.749072 23.0254 0.996029L26.19 3.70999C26.4421 3.96303 26.5926 4.29981 26.6129 4.65645C26.6348 5.02103 27.0519 13.6573 20.3552 20.3569C14.5131 26.1975 7.19521 26.6248 5.1798 26.6248C4.88521 26.6248 4.70438 26.616 4.65626 26.6131C4.29967 26.5932 3.96307 26.442 3.71125 26.1887L0.998755 23.0227C0.751617 22.7347 0.626471 22.3617 0.649889 21.983C0.673306 21.6042 0.843443 21.2495 1.12417 20.9942L7.05084 15.6042Z" fill="#4B5FFE"/>
</svg>
