<svg width="170" height="170" viewBox="0 0 170 170" fill="none" xmlns="http://www.w3.org/2000/svg">
<g opacity="0.4">
<mask id="path-1-inside-1_286_1741" fill="white">
<path fill-rule="evenodd" clip-rule="evenodd" d="M85 170C131.944 170 170 131.944 170 85C170 38.0558 131.944 0 85 0C38.0558 0 0 38.0558 0 85C0 131.944 38.0558 170 85 170ZM65.7336 118.371L123.534 84.9998L65.7336 51.6289V118.371Z"/>
</mask>
<path fill-rule="evenodd" clip-rule="evenodd" d="M85 170C131.944 170 170 131.944 170 85C170 38.0558 131.944 0 85 0C38.0558 0 0 38.0558 0 85C0 131.944 38.0558 170 85 170ZM65.7336 118.371L123.534 84.9998L65.7336 51.6289V118.371Z" fill="white"/>
<path d="M123.534 84.9998L124.28 86.2919L126.518 84.9998L124.28 83.7076L123.534 84.9998ZM65.7336 118.371H64.2415V120.955L66.4796 119.663L65.7336 118.371ZM65.7336 51.6289L66.4796 50.3368L64.2415 49.0446V51.6289H65.7336ZM168.508 85C168.508 131.12 131.12 168.508 85 168.508V171.492C132.768 171.492 171.492 132.768 171.492 85H168.508ZM85 1.49206C131.12 1.49206 168.508 38.8798 168.508 85H171.492C171.492 37.2318 132.768 -1.49206 85 -1.49206V1.49206ZM1.49206 85C1.49206 38.8798 38.8798 1.49206 85 1.49206V-1.49206C37.2318 -1.49206 -1.49206 37.2318 -1.49206 85H1.49206ZM85 168.508C38.8798 168.508 1.49206 131.12 1.49206 85H-1.49206C-1.49206 132.768 37.2318 171.492 85 171.492V168.508ZM122.788 83.7076L64.9875 117.078L66.4796 119.663L124.28 86.2919L122.788 83.7076ZM64.9875 52.9211L122.788 86.2919L124.28 83.7076L66.4796 50.3368L64.9875 52.9211ZM67.2256 118.371V51.6289H64.2415V118.371H67.2256Z" fill="white" mask="url(#path-1-inside-1_286_1741)"/>
</g>
</svg>
