<svg width="25" height="25" viewBox="0 0 25 25" fill="none" xmlns="http://www.w3.org/2000/svg">
<path d="M21.6141 24.66L16.7464 19.7915C16.5267 19.5717 16.4046 19.2739 16.4046 18.9613L16.4046 18.1654C14.6812 19.5131 12.5134 20.314 10.1553 20.314C4.54545 20.314 1.88029e-07 15.7678 1.21121e-07 10.157C5.42133e-08 4.54623 4.54545 -5.4204e-08 10.1553 -1.211e-07C15.7651 -1.87996e-07 20.3105 4.54623 20.3105 10.157C20.3105 12.5156 19.5098 14.6837 18.1623 16.4074L18.9581 16.4074C19.2706 16.4074 19.5684 16.5295 19.7881 16.7493L24.6558 21.6178C25.1147 22.0768 25.1147 22.8191 24.6558 23.2732L23.2741 24.6551C22.8152 25.1141 22.073 25.1141 21.6141 24.66ZM16.4046 10.157C16.4046 6.70459 13.612 3.90654 10.1553 3.90654C6.70345 3.90654 3.90587 6.69971 3.90587 10.157C3.90587 13.6094 6.69856 16.4074 10.1553 16.4074C13.6071 16.4074 16.4046 13.6143 16.4046 10.157Z" fill="#5869F8"/>
</svg>
