<svg width="16" height="11" viewBox="0 0 16 11" fill="none" xmlns="http://www.w3.org/2000/svg">
<path fill-rule="evenodd" clip-rule="evenodd" d="M13.2578 7.83092H14.0438V5.48551L12.1804 4.2329L10.9435 1.73861H1.95984V7.83092H2.74577C3.02225 7.04217 3.76826 6.47707 4.64516 6.47707C5.52206 6.47707 6.26807 7.04217 6.54455 7.83092H9.45906C9.73554 7.04217 10.4815 6.47707 11.3584 6.47707C12.2353 6.47707 12.9814 7.04217 13.2578 7.83092ZM13.2578 9.18477C12.9814 9.97351 12.2353 10.5386 11.3584 10.5386C10.4815 10.5386 9.73554 9.97351 9.45906 9.18477H6.54455C6.26807 9.97351 5.52206 10.5386 4.64516 10.5386C3.76826 10.5386 3.02225 9.97351 2.74577 9.18477H1.95984C1.21832 9.18477 0.617188 8.57863 0.617188 7.83092V1.73861C0.617188 0.990903 1.21832 0.384766 1.95984 0.384766H10.9435C11.4521 0.384766 11.917 0.674492 12.1445 1.13315L13.2218 3.30586L15.3864 4.76095V7.83092C15.3864 8.57863 14.7853 9.18477 14.0438 9.18477H13.2578ZM4.64516 9.18477C5.01592 9.18477 5.31649 8.8817 5.31649 8.50784C5.31649 8.13399 5.01592 7.83092 4.64516 7.83092C4.2744 7.83092 3.97383 8.13399 3.97383 8.50784C3.97383 8.8817 4.2744 9.18477 4.64516 9.18477ZM11.3584 9.18477C11.7292 9.18477 12.0298 8.8817 12.0298 8.50784C12.0298 8.13399 11.7292 7.83092 11.3584 7.83092C10.9877 7.83092 10.6871 8.13399 10.6871 8.50784C10.6871 8.8817 10.9877 9.18477 11.3584 9.18477Z" fill="#232C33"/>
</svg>
