<svg width="57" height="57" viewBox="0 0 57 57" fill="none" xmlns="http://www.w3.org/2000/svg">
<path fill-rule="evenodd" clip-rule="evenodd" d="M28.7749 1.66209C13.905 1.66209 1.85057 13.7165 1.85057 28.5864C1.85057 43.4563 13.905 55.5107 28.7749 55.5107C43.6448 55.5107 55.6992 43.4563 55.6992 28.5864C55.6992 13.7165 43.6448 1.66209 28.7749 1.66209ZM28.7749 0.662092C13.3527 0.66209 0.850574 13.1642 0.850573 28.5864C0.850572 44.0086 13.3527 56.5107 28.7749 56.5107C44.1971 56.5107 56.6992 44.0086 56.6992 28.5864C56.6992 13.1642 44.1971 0.662093 28.7749 0.662092Z" fill="black"/>
<path fill-rule="evenodd" clip-rule="evenodd" d="M35.1502 23.4016C35.5707 23.0435 36.2019 23.0942 36.5599 23.5147L41.01 28.741L36.3637 34.302C36.0095 34.7258 35.3789 34.7823 34.9551 34.4282C34.5313 34.0741 34.4748 33.4435 34.8289 33.0196L37.5615 29.7491L17.1972 29.768C16.6449 29.7685 16.1968 29.3212 16.1963 28.7689C16.1957 28.2166 16.643 27.7685 17.1953 27.768L37.5386 27.7491L35.0371 24.8113C34.6791 24.3908 34.7297 23.7596 35.1502 23.4016Z" fill="black"/>
</svg>
