<svg width="55" height="56" viewBox="0 0 55 56" fill="none" xmlns="http://www.w3.org/2000/svg">
<path fill-rule="evenodd" clip-rule="evenodd" d="M27.5 1.49554C12.8561 1.49554 0.984808 13.3668 0.984806 28.0107C0.984805 42.6547 12.8561 54.5259 27.5 54.5259C42.1439 54.5259 54.0152 42.6547 54.0152 28.0107C54.0152 13.3668 42.1439 1.49555 27.5 1.49554ZM27.5 0.510739C12.3122 0.510738 3.17411e-06 12.8229 1.84635e-06 28.0107C5.18584e-07 43.1986 12.3122 55.5107 27.5 55.5107C42.6878 55.5107 55 43.1986 55 28.0107C55 12.8229 42.6878 0.510741 27.5 0.510739Z" fill="white"/>
<path fill-rule="evenodd" clip-rule="evenodd" d="M33.6627 22.7693C34.0692 22.4079 34.6917 22.4445 35.053 22.8511L39.5441 27.9035L35.086 33.4762C34.7462 33.9009 34.1265 33.9697 33.7018 33.63C33.2771 33.2902 33.2082 32.6705 33.548 32.2458L36.1699 28.9684L16.12 29.4139C15.5762 29.426 15.1256 28.995 15.1135 28.4512C15.1014 27.9075 15.5325 27.4569 16.0762 27.4448L36.1055 26.9997L33.5809 24.1596C33.2196 23.7531 33.2562 23.1306 33.6627 22.7693Z" fill="white"/>
</svg>
