<svg width="55" height="56" viewBox="0 0 55 56" fill="none" xmlns="http://www.w3.org/2000/svg">
<path fill-rule="evenodd" clip-rule="evenodd" d="M27.5 54.5259C42.1439 54.5259 54.0152 42.6547 54.0152 28.0107C54.0152 13.3668 42.1439 1.49555 27.5 1.49555C12.8561 1.49555 0.984805 13.3668 0.984805 28.0107C0.984805 42.6547 12.8561 54.5259 27.5 54.5259ZM27.5 55.5107C42.6878 55.5107 55 43.1986 55 28.0107C55 12.8229 42.6878 0.510742 27.5 0.510742C12.3122 0.510742 0 12.8229 0 28.0107C0 43.1986 12.3122 55.5107 27.5 55.5107Z" fill="white"/>
<path fill-rule="evenodd" clip-rule="evenodd" d="M21.3334 33.2532C20.9269 33.6145 20.3044 33.5779 19.9431 33.1714L15.452 28.1189L19.9101 22.5463C20.2499 22.1216 20.8696 22.0527 21.2943 22.3925C21.719 22.7323 21.7879 23.352 21.4481 23.7767L18.8262 27.0541L38.8761 26.6086C39.4199 26.5965 39.8705 27.0275 39.8826 27.5712C39.8946 28.115 39.4636 28.5656 38.9199 28.5777L18.8906 29.0228L21.4152 31.8629C21.7765 32.2694 21.7399 32.8918 21.3334 33.2532Z" fill="white"/>
</svg>
