<svg width="56" height="57" viewBox="0 0 56 57" fill="none" xmlns="http://www.w3.org/2000/svg">
<path fill-rule="evenodd" clip-rule="evenodd" d="M27.9243 55.5108C42.7942 55.5108 54.8486 43.4563 54.8486 28.5864C54.8486 13.7165 42.7942 1.66211 27.9243 1.66211C13.0544 1.66211 1 13.7165 1 28.5864C1 43.4563 13.0544 55.5108 27.9243 55.5108ZM27.9243 56.5108C43.3465 56.5108 55.8486 44.0086 55.8486 28.5864C55.8486 13.1643 43.3465 0.662109 27.9243 0.662109C12.5021 0.662109 0 13.1643 0 28.5864C0 44.0086 12.5021 56.5108 27.9243 56.5108Z" fill="black"/>
<path fill-rule="evenodd" clip-rule="evenodd" d="M21.5112 33.7245C21.0882 34.0795 20.4574 34.0243 20.1024 33.6013L15.6901 28.343L20.3764 22.8156C20.7335 22.3944 21.3645 22.3424 21.7858 22.6996C22.2071 23.0567 22.259 23.6878 21.9019 24.109L19.1457 27.3598L39.5097 27.4876C40.0619 27.4911 40.5068 27.9416 40.5034 28.4939C40.4999 29.0462 40.0494 29.4911 39.4971 29.4876L19.1542 29.3599L21.6345 32.3157C21.9895 32.7387 21.9343 33.3695 21.5112 33.7245Z" fill="black"/>
</svg>
