<svg width="95" height="15" viewBox="0 0 95 15" fill="none" xmlns="http://www.w3.org/2000/svg">
<g clip-path="url(#clip0_286_1798)">
<path d="M3.38624 14.4783C3.02436 14.6639 2.61374 14.3386 2.68686 13.9233L3.46499 9.48891L0.162176 6.34266C-0.146261 6.04828 0.0140513 5.51016 0.427489 5.45203L5.01936 4.79953L7.06686 0.742969C7.25155 0.377344 7.75124 0.377344 7.93593 0.742969L9.98343 4.79953L14.5753 5.45203C14.9887 5.51016 15.1491 6.04828 14.8397 6.34266L11.5378 9.48891L12.3159 13.9233C12.3891 14.3386 11.9784 14.6639 11.6166 14.4783L7.49999 12.3633L3.3853 14.4783H3.38624Z" fill="#5362F7"/>
</g>
<g clip-path="url(#clip1_286_1798)">
<path d="M23.3862 14.4783C23.0244 14.6639 22.6137 14.3386 22.6869 13.9233L23.465 9.48891L20.1622 6.34266C19.8537 6.04828 20.0141 5.51016 20.4275 5.45203L25.0194 4.79953L27.0669 0.742969C27.2516 0.377344 27.7512 0.377344 27.9359 0.742969L29.9834 4.79953L34.5753 5.45203C34.9887 5.51016 35.1491 6.04828 34.8397 6.34266L31.5378 9.48891L32.3159 13.9233C32.3891 14.3386 31.9784 14.6639 31.6166 14.4783L27.5 12.3633L23.3853 14.4783H23.3862Z" fill="#5362F7"/>
</g>
<g clip-path="url(#clip2_286_1798)">
<path d="M43.3862 14.4783C43.0244 14.6639 42.6137 14.3386 42.6869 13.9233L43.465 9.48891L40.1622 6.34266C39.8537 6.04828 40.0141 5.51016 40.4275 5.45203L45.0194 4.79953L47.0669 0.742969C47.2516 0.377344 47.7512 0.377344 47.9359 0.742969L49.9834 4.79953L54.5753 5.45203C54.9887 5.51016 55.1491 6.04828 54.8397 6.34266L51.5378 9.48891L52.3159 13.9233C52.3891 14.3386 51.9784 14.6639 51.6166 14.4783L47.5 12.3633L43.3853 14.4783H43.3862Z" fill="#5362F7"/>
</g>
<g clip-path="url(#clip3_286_1798)">
<path d="M63.3862 14.4783C63.0244 14.6639 62.6137 14.3386 62.6869 13.9233L63.465 9.48891L60.1622 6.34266C59.8537 6.04828 60.0141 5.51016 60.4275 5.45203L65.0194 4.79953L67.0669 0.742969C67.2516 0.377344 67.7512 0.377344 67.9359 0.742969L69.9834 4.79953L74.5753 5.45203C74.9887 5.51016 75.1491 6.04828 74.8397 6.34266L71.5378 9.48891L72.3159 13.9233C72.3891 14.3386 71.9784 14.6639 71.6166 14.4783L67.5 12.3633L63.3853 14.4783H63.3862Z" fill="#5362F7"/>
</g>
<g clip-path="url(#clip4_286_1798)">
<path d="M85.0194 4.79906L87.0669 0.7425C87.1062 0.660894 87.1676 0.591969 87.2442 0.543572C87.3208 0.495174 87.4094 0.46925 87.5 0.46875C87.6716 0.46875 87.8431 0.559688 87.9359 0.7425L89.9834 4.79906L94.5753 5.45156C94.6898 5.46956 94.7945 5.52648 94.8719 5.61273C94.9492 5.69897 94.9945 5.80927 95 5.925C95.0065 6.00205 94.9956 6.07958 94.968 6.15182C94.9404 6.22405 94.8969 6.28913 94.8406 6.34219L91.5378 9.48844L92.3159 13.9228C92.3891 14.3381 91.9784 14.6634 91.6166 14.4778L87.5 12.3628L83.3853 14.4778C83.3423 14.5002 83.2961 14.516 83.2484 14.5247C82.9278 14.5809 82.6222 14.2866 82.6859 13.9228L83.4641 9.48844L80.1622 6.34219C80.1108 6.29362 80.07 6.23503 80.0423 6.17003C80.0146 6.10504 80.0005 6.03504 80.0009 5.96438C80.001 5.86447 80.0285 5.76651 80.0806 5.68125C80.1175 5.61944 80.1679 5.56671 80.2279 5.52696C80.288 5.4872 80.3562 5.46144 80.4275 5.45156L85.0194 4.79906ZM87.5 11.2753C87.5757 11.275 87.6503 11.293 87.7175 11.3278L91.1731 13.1034L90.5225 9.39375C90.5071 9.30843 90.5129 9.22065 90.5394 9.1381C90.5659 9.05556 90.6122 8.98077 90.6744 8.92031L93.3997 6.32344L89.6009 5.78344C89.5223 5.77156 89.4477 5.74079 89.3835 5.69377C89.3193 5.64674 89.2675 5.58487 89.2325 5.51344L87.5009 2.08406L87.5 2.08688V11.2744V11.2753Z" fill="#5362F7"/>
</g>
<defs>
<clipPath id="clip0_286_1798">
<rect width="15" height="15" fill="white"/>
</clipPath>
<clipPath id="clip1_286_1798">
<rect width="15" height="15" fill="white" transform="translate(20)"/>
</clipPath>
<clipPath id="clip2_286_1798">
<rect width="15" height="15" fill="white" transform="translate(40)"/>
</clipPath>
<clipPath id="clip3_286_1798">
<rect width="15" height="15" fill="white" transform="translate(60)"/>
</clipPath>
<clipPath id="clip4_286_1798">
<rect width="15" height="15" fill="white" transform="translate(80)"/>
</clipPath>
</defs>
</svg>
