<svg width="26" height="23" viewBox="0 0 26 23" fill="none" xmlns="http://www.w3.org/2000/svg">
<path d="M17 11.9414V8.44141C17 7.61341 16.329 6.94141 15.5 6.94141V6.94141C14.672 6.94141 14 7.61341 14 8.44141" stroke="#788084" stroke-linecap="round" stroke-linejoin="round"/>
<path d="M17 9.44141C17 8.61341 17.672 7.94141 18.5 7.94141V7.94141C19.329 7.94141 20 8.61341 20 9.44141V12.9414" stroke="#788084" stroke-linecap="round" stroke-linejoin="round"/>
<path d="M13.9992 11.9414V3.44141C13.9992 2.61341 13.3282 1.94141 12.4992 1.94141V1.94141C11.6712 1.94141 10.9992 2.61341 10.9992 3.44141V10.9414V13.9414L9.11522 12.0574C8.49822 11.4404 7.49922 11.4404 6.88222 12.0574V12.0574C6.36822 12.5714 6.28822 13.3764 6.69222 13.9814L10.2182 19.2694C11.3312 20.9384 13.2042 21.9414 15.2112 21.9414H16.9992C20.3132 21.9414 22.9992 19.2554 22.9992 15.9414V11.9414V10.4414C22.9992 9.61341 22.3282 8.94141 21.4992 8.94141V8.94141C20.6712 8.94141 19.9992 9.61341 19.9992 10.4414" stroke="#788084" stroke-linecap="round" stroke-linejoin="round"/>
<path d="M23.0857 1L24.9997 2.914L22.9727 4.941" stroke="#788084" stroke-linecap="round" stroke-linejoin="round"/>
<path d="M2.91434 1L1.00034 2.914L3.02734 4.941" stroke="#788084" stroke-linecap="round" stroke-linejoin="round"/>
<path d="M25 2.91113H19" stroke="#788084" stroke-linecap="round" stroke-linejoin="round"/>
<path d="M1 2.91113H7" stroke="#788084" stroke-linecap="round" stroke-linejoin="round"/>
</svg>
