<svg width="30" height="30" viewBox="0 0 30 30" fill="none" xmlns="http://www.w3.org/2000/svg">
<path d="M15 6C10.032 6 6 10.032 6 15C6 19.968 10.032 24 15 24C19.968 24 24 19.968 24 15C24 10.032 19.968 6 15 6ZM19.176 12.12C19.041 13.542 18.456 16.998 18.159 18.591C18.033 19.266 17.781 19.491 17.547 19.518C17.025 19.563 16.629 19.176 16.125 18.843C15.333 18.321 14.883 17.997 14.118 17.493C13.227 16.908 13.803 16.584 14.316 16.062C14.451 15.927 16.755 13.83 16.8 13.641C16.8063 13.6124 16.8054 13.5827 16.7976 13.5544C16.7897 13.5262 16.7751 13.5003 16.755 13.479C16.701 13.434 16.629 13.452 16.566 13.461C16.485 13.479 15.225 14.316 12.768 15.972C12.408 16.215 12.084 16.341 11.796 16.332C11.472 16.323 10.86 16.152 10.401 15.999C9.834 15.819 9.393 15.72 9.429 15.405C9.447 15.243 9.672 15.081 10.095 14.91C12.723 13.767 14.469 13.011 15.342 12.651C17.844 11.607 18.357 11.427 18.699 11.427C18.771 11.427 18.942 11.445 19.05 11.535C19.14 11.607 19.167 11.706 19.176 11.778C19.167 11.832 19.185 11.994 19.176 12.12Z" fill="white"/>
</svg>
