<svg width="19" height="19" viewBox="0 0 19 19" fill="none" xmlns="http://www.w3.org/2000/svg">
<path d="M9.53516 0.0107422C4.56716 0.0107422 0.535156 4.04274 0.535156 9.01074C0.535156 13.9787 4.56716 18.0107 9.53516 18.0107C14.5032 18.0107 18.5352 13.9787 18.5352 9.01074C18.5352 4.04274 14.5032 0.0107422 9.53516 0.0107422ZM13.7112 6.13074C13.5762 7.55274 12.9912 11.0087 12.6942 12.6017C12.5682 13.2767 12.3162 13.5017 12.0822 13.5287C11.5602 13.5737 11.1642 13.1867 10.6602 12.8537C9.86816 12.3317 9.41816 12.0077 8.65316 11.5037C7.76216 10.9187 8.33816 10.5947 8.85116 10.0727C8.98616 9.93774 11.2902 7.84074 11.3352 7.65174C11.3414 7.62312 11.3406 7.5934 11.3327 7.56517C11.3249 7.53693 11.3103 7.51104 11.2902 7.48974C11.2362 7.44474 11.1642 7.46274 11.1012 7.47174C11.0202 7.48974 9.76016 8.32674 7.30316 9.98274C6.94316 10.2257 6.61916 10.3517 6.33116 10.3427C6.00716 10.3337 5.39516 10.1627 4.93616 10.0097C4.36916 9.82974 3.92816 9.73074 3.96416 9.41574C3.98216 9.25374 4.20716 9.09174 4.63016 8.92074C7.25816 7.77774 9.00416 7.02174 9.87716 6.66174C12.3792 5.61774 12.8922 5.43774 13.2342 5.43774C13.3062 5.43774 13.4772 5.45574 13.5852 5.54574C13.6752 5.61774 13.7022 5.71674 13.7112 5.78874C13.7022 5.84274 13.7202 6.00474 13.7112 6.13074Z" fill="#2781B9"/>
</svg>
