<svg width="29" height="32" viewBox="0 0 29 32" fill="none" xmlns="http://www.w3.org/2000/svg">
<path d="M28.3 26.5544V16.9499C28.2999 16.7686 28.2542 16.5902 28.167 16.4312C28.0907 16.3047 27.9763 16.2056 27.8402 16.1481C27.6977 16.0881 27.5473 16.0484 27.3937 16.0303C27.2317 16.0101 27.0687 16 26.9054 15.9999H26.4V6.72221C26.4589 6.59301 26.5444 6.44101 26.6527 6.26241C26.761 6.08381 26.8655 5.88621 26.9643 5.66961C27.0631 5.45111 27.1524 5.24781 27.2303 5.06161C27.2994 4.91679 27.34 4.76005 27.35 4.59991C27.322 4.39403 27.2775 4.19071 27.217 3.99191C27.1285 3.67631 27.029 3.36389 26.9187 3.05521C26.8066 2.73789 26.6926 2.42121 26.5767 2.10521C26.4962 1.89044 26.4227 1.67309 26.3563 1.45351C26.2839 1.26497 26.1602 1.10044 25.9991 0.978512C25.841 0.859684 25.6478 0.79685 25.45 0.799911H21.65C21.4471 0.808299 21.251 0.875645 21.0857 0.993711C20.9233 1.10419 20.8028 1.26617 20.7437 1.45351C20.6682 1.6771 20.5891 1.89943 20.5062 2.12041C20.3918 2.43497 20.2835 2.75169 20.1813 3.07041C20.0711 3.40671 19.9723 3.71831 19.883 4.00711C19.7937 4.29211 19.75 4.49161 19.75 4.59991C19.75 4.73861 19.788 4.89631 19.8697 5.07491C19.9476 5.25351 20.0407 5.45111 20.1509 5.66961C20.3276 6.02376 20.5107 6.37468 20.7 6.72221V15.9999H20.1946C20.0263 15.999 19.8581 16.0092 19.6911 16.0303C19.5358 16.0488 19.3848 16.0938 19.2446 16.1633C19.1135 16.2268 19.0014 16.3238 18.9197 16.4445C18.8314 16.5977 18.7898 16.7734 18.8 16.9499V26.5544C18.8 27.1966 18.9292 27.8008 19.1857 28.3651C19.4441 28.9294 19.7899 29.4234 20.225 29.849C21.113 30.7184 22.3073 31.2036 23.55 31.1999C24.1827 31.1999 24.7869 31.0764 25.3607 30.8294C25.921 30.5908 26.4338 30.2536 26.875 29.8338C27.3137 29.4165 27.6667 28.9176 27.9143 28.3651C28.1724 27.7966 28.304 27.1788 28.3 26.5544ZM24.5 15.9999H22.6V6.49991C22.5997 6.34991 22.5639 6.20211 22.4955 6.06861L21.7241 4.52581L22.3321 2.69991H24.7679L25.3759 4.52391L24.6045 6.06861C24.5361 6.20211 24.5003 6.34991 24.5 6.49991V15.9999ZM20.7 19.7999V17.8999H26.4V19.7999H20.7ZM26.4 21.6999V26.4499C26.409 26.828 26.3331 27.2033 26.1777 27.5481C26.0288 27.8912 25.8175 28.2037 25.5545 28.4696C25.0216 28.9993 24.3014 29.2976 23.55 29.2999C23.1719 29.3095 22.7965 29.2335 22.4518 29.0776C21.9339 28.8603 21.4915 28.4951 21.1799 28.0277C20.8684 27.5604 20.7015 27.0116 20.7 26.4499V21.6999H26.4ZM7.40002 1.82971C7.40024 1.67395 7.36215 1.52053 7.28912 1.38295C7.21608 1.24538 7.11034 1.12787 6.98121 1.04078C6.85207 0.95369 6.7035 0.899687 6.54859 0.883527C6.39367 0.867367 6.23715 0.889546 6.09282 0.948112C4.56486 1.56613 3.24804 2.61253 2.30083 3.96138C1.35361 5.31024 0.816366 6.90408 0.753736 8.55111C0.691107 10.1981 1.10576 11.8282 1.94781 13.2451C2.78985 14.662 4.0234 15.8053 5.50002 16.5376V27.3999C5.50002 28.4077 5.90038 29.3743 6.61302 30.0869C7.32566 30.7996 8.2922 31.1999 9.30002 31.1999C10.3078 31.1999 11.2744 30.7996 11.987 30.0869C12.6997 29.3743 13.1 28.4077 13.1 27.3999V16.5395C14.5773 15.8078 15.8116 14.6646 16.6542 13.2476C17.4967 11.8307 17.9117 10.2003 17.849 8.55291C17.7864 6.90552 17.2488 5.31138 16.3011 3.96247C15.3533 2.61356 14.0358 1.56741 12.5072 0.950011C12.3629 0.891446 12.2064 0.869267 12.0515 0.885427C11.8965 0.901587 11.748 0.95559 11.6188 1.04268C11.4897 1.12977 11.384 1.24728 11.3109 1.38486C11.2379 1.52243 11.1998 1.67585 11.2 1.83161V8.39991C11.2 8.90382 10.9998 9.38709 10.6435 9.74341C10.2872 10.0997 9.80394 10.2999 9.30002 10.2999C8.79611 10.2999 8.31284 10.0997 7.95652 9.74341C7.6002 9.38709 7.40002 8.90382 7.40002 8.39991V1.82971ZM2.65002 8.87871C2.65002 6.61771 3.77672 4.62271 5.50002 3.41811V8.39611C5.50002 9.40393 5.90038 10.3705 6.61302 11.0831C7.32566 11.7958 8.2922 12.1961 9.30002 12.1961C10.3078 12.1961 11.2744 11.7958 11.987 11.0831C12.6997 10.3705 13.1 9.40393 13.1 8.39611V3.41811C14.0837 4.10293 14.8641 5.0408 15.3586 6.13258C15.8532 7.22436 16.0436 8.42949 15.9096 9.62055C15.7757 10.8116 15.3225 11.9444 14.5978 12.8991C13.8732 13.8538 12.904 14.5949 11.7928 15.0442C11.6177 15.1153 11.4678 15.2369 11.3622 15.3936C11.2566 15.5503 11.2001 15.735 11.2 15.9239V27.3999C11.2 27.9038 10.9998 28.3871 10.6435 28.7434C10.2872 29.0997 9.80394 29.2999 9.30002 29.2999C8.79611 29.2999 8.31284 29.0997 7.95652 28.7434C7.6002 28.3871 7.40002 27.9038 7.40002 27.3999V15.9239C7.39991 15.735 7.34344 15.5503 7.23784 15.3936C7.13225 15.2369 6.98232 15.1153 6.80722 15.0442C5.57849 14.5471 4.52628 13.6942 3.78557 12.595C3.04487 11.4958 2.64944 10.2004 2.65002 8.87491V8.87871Z" fill="white"/>
</svg>
