<svg width="38" height="38" viewBox="0 0 38 38" fill="none" xmlns="http://www.w3.org/2000/svg">
<path d="M10.3259 16.3907L11.5799 16.568L10.3259 16.3907ZM10.3005 16.568L9.04653 16.3907L10.3005 16.568ZM27.6741 16.3907L28.9281 16.2133L27.6741 16.3907ZM27.6995 16.568L26.4455 16.7453L27.6995 16.568ZM24.0667 31.6667V32.9333C24.4026 32.9333 24.7248 32.7999 24.9623 32.5623C25.1999 32.3248 25.3333 32.0026 25.3333 31.6667H24.0667ZM13.9333 31.6667H12.6667C12.6667 32.0026 12.8001 32.3248 13.0377 32.5623C13.2752 32.7999 13.5974 32.9333 13.9333 32.9333V31.6667ZM12.046 23.1876L13.0492 22.4124L12.046 23.1876ZM25.954 23.1876L24.9508 22.4124L25.954 23.1876ZM15.2 38H22.8V35.4667H15.2V38ZM9.06933 16.2133L9.044 16.3907L11.552 16.7453L11.5773 16.568L9.06933 16.2133ZM19 7.6C16.5851 7.5996 14.2511 8.47054 12.4268 10.0529C10.6025 11.6352 9.41031 13.8226 9.06933 16.2133L11.5773 16.568C11.8329 14.7816 12.7242 13.1474 14.0878 11.9654C15.4513 10.7833 17.1954 10.1328 19 10.1333V7.6ZM28.9307 16.2133C28.5897 13.8226 27.3975 11.6352 25.5732 10.0529C23.7489 8.47054 21.4149 7.5996 19 7.6V10.1333C20.8044 10.1334 22.5483 10.784 23.9117 11.966C25.2751 13.1479 26.1666 14.7818 26.4227 16.568L28.9307 16.2133ZM28.956 16.3907L28.9307 16.2133L26.4227 16.568L26.448 16.7453L28.956 16.3907ZM26.9547 23.9628C28.5507 21.9007 29.3563 19.2128 28.956 16.3881L26.448 16.7479C26.5931 17.744 26.5355 18.7593 26.2786 19.7326C26.0218 20.706 25.571 21.6175 24.9533 22.4124L26.9547 23.9628ZM22.8 27.6133V31.6667H25.3333V27.6159H22.8V27.6133ZM24.0667 30.4H13.9333V32.9333H24.0667V30.4ZM15.2 31.6667V27.6159H12.6667V31.6667H15.2ZM9.044 16.3907C8.85143 17.7225 8.92941 19.0796 9.27328 20.3806C9.61715 21.6817 10.2198 22.9 11.0453 23.9628L13.0467 22.4124C12.429 21.6175 11.9782 20.706 11.7214 19.7326C11.4645 18.7593 11.4069 17.744 11.552 16.7479L9.044 16.3881V16.3907ZM15.2 27.6133C15.2 25.5284 14.0904 23.7551 13.0467 22.4099L11.0453 23.9603C12.0156 25.2143 12.6667 26.4125 12.6667 27.6133H15.2ZM24.9533 22.4099C23.9071 23.7576 22.8 25.5284 22.8 27.6133H25.3333C25.3333 26.4125 25.9844 25.2143 26.9547 23.9603L24.9533 22.4099ZM17.7333 0V5.06667H20.2667V0H17.7333ZM0 20.2667H5.06667V17.7333H0V20.2667ZM32.9333 20.2667H38V17.7333H32.9333V20.2667ZM8.4968 9.23653L4.6968 5.43653L2.9032 7.23013L6.7032 11.0301L8.4968 9.23653ZM31.2968 11.0301L35.0968 7.23013L33.3032 5.43653L29.5032 9.23653L31.2968 11.0301Z" fill="white"/>
</svg>
