<svg width="38" height="38" viewBox="0 0 38 38" fill="none" xmlns="http://www.w3.org/2000/svg">
<path d="M19 11.291C17.9876 11.291 16.9851 11.4904 16.0498 11.8778C15.1145 12.2653 14.2646 12.8331 13.5487 13.549C12.8329 14.2649 12.265 15.1147 11.8776 16.0501C11.4901 16.9854 11.2907 17.9879 11.2907 19.0003C11.2907 20.0127 11.4901 21.0151 11.8776 21.9505C12.265 22.8858 12.8329 23.7357 13.5487 24.4515C14.2646 25.1674 15.1145 25.7353 16.0498 26.1227C16.9851 26.5101 17.9876 26.7095 19 26.7095C21.0446 26.7095 23.0055 25.8973 24.4513 24.4515C25.897 23.0058 26.7092 21.0449 26.7092 19.0003C26.7092 16.9556 25.897 14.9948 24.4513 13.549C23.0055 12.1032 21.0446 11.291 19 11.291ZM13.6657 19.0003C13.6657 17.5855 14.2277 16.2287 15.2281 15.2284C16.2285 14.228 17.5853 13.666 19 13.666C20.4147 13.666 21.7715 14.228 22.7719 15.2284C23.7722 16.2287 24.3342 17.5855 24.3342 19.0003C24.3342 20.415 23.7722 21.7718 22.7719 22.7721C21.7715 23.7725 20.4147 24.3345 19 24.3345C17.5853 24.3345 16.2285 23.7725 15.2281 22.7721C14.2277 21.7718 13.6657 20.415 13.6657 19.0003Z" fill="white"/>
<path d="M23.265 3.18941C22.0134 -1.06184 15.9857 -1.06184 14.734 3.18941L14.5108 3.94704C14.4234 4.2438 14.2707 4.51724 14.0639 4.74731C13.857 4.97739 13.6014 5.15827 13.3156 5.27669C13.0298 5.39511 12.7211 5.44807 12.4121 5.43169C12.1032 5.41532 11.8019 5.33001 11.5302 5.18204L10.8367 4.80204C6.94167 2.68354 2.6833 6.94429 4.80417 10.8369L5.18179 11.5304C5.32977 11.8021 5.41507 12.1034 5.43145 12.4124C5.44783 12.7213 5.39486 13.03 5.27644 13.3158C5.15802 13.6016 4.97715 13.8573 4.74707 14.0641C4.517 14.2709 4.24356 14.4236 3.94679 14.511L3.18917 14.7343C-1.06208 15.9859 -1.06208 22.0137 3.18917 23.2653L3.94679 23.4885C4.24356 23.5759 4.517 23.7287 4.74707 23.9355C4.97715 24.1423 5.15802 24.398 5.27644 24.6838C5.39486 24.9696 5.44783 25.2783 5.43145 25.5872C5.41507 25.8961 5.32977 26.1975 5.18179 26.4692L4.8018 27.1627C2.6833 31.0577 6.94167 35.3184 10.8367 33.1952L11.5302 32.8175C11.8019 32.6696 12.1032 32.5843 12.4121 32.5679C12.7211 32.5515 13.0298 32.6045 13.3156 32.7229C13.6014 32.8413 13.857 33.0222 14.0639 33.2523C14.2707 33.4823 14.4234 33.7558 14.5108 34.0525L14.734 34.8102C15.9857 39.0614 22.0134 39.0614 23.265 34.8102L23.4883 34.0525C23.5757 33.7558 23.7284 33.4823 23.9352 33.2523C24.142 33.0222 24.3977 32.8413 24.6835 32.7229C24.9693 32.6045 25.278 32.5515 25.587 32.5679C25.8959 32.5843 26.1972 32.6696 26.4689 32.8175L27.1624 33.1975C31.0574 35.3184 35.3182 31.0553 33.1949 27.1627L32.8173 26.4692C32.6693 26.1975 32.584 25.8961 32.5676 25.5872C32.5513 25.2783 32.6042 24.9696 32.7226 24.6838C32.8411 24.398 33.0219 24.1423 33.252 23.9355C33.4821 23.7287 33.7555 23.5759 34.0523 23.4885L34.8099 23.2653C39.0612 22.0137 39.0612 15.9859 34.8099 14.7343L34.0523 14.511C33.7555 14.4236 33.4821 14.2709 33.252 14.0641C33.0219 13.8573 32.8411 13.6016 32.7226 13.3158C32.6042 13.03 32.5513 12.7213 32.5676 12.4124C32.584 12.1034 32.6693 11.8021 32.8173 11.5304L33.1973 10.8369C35.3182 6.94191 31.055 2.68354 27.1624 4.80441L26.4689 5.18204C26.1972 5.33001 25.8959 5.41532 25.587 5.43169C25.278 5.44807 24.9693 5.39511 24.6835 5.27669C24.3977 5.15827 24.142 4.97739 23.9352 4.74731C23.7284 4.51724 23.5757 4.2438 23.4883 3.94704L23.265 3.18941ZM17.0117 3.86154C17.5959 1.87841 20.4032 1.87841 20.9874 3.86154L21.2107 4.61916C21.3983 5.25587 21.7261 5.8425 22.17 6.33605C22.6139 6.8296 23.1626 7.21756 23.7759 7.47149C24.3891 7.72542 25.0515 7.83887 25.7143 7.80354C26.3772 7.76821 27.0237 7.58498 27.6065 7.26729L28.2977 6.88729C30.1122 5.90166 32.0977 7.88479 31.1097 9.70166L30.732 10.3952C30.4148 10.9781 30.2321 11.6245 30.1971 12.2872C30.1622 12.9499 30.2759 13.612 30.5301 14.2251C30.7842 14.8381 31.1723 15.3865 31.6658 15.8301C32.1594 16.2736 32.746 16.6012 33.3825 16.7887L34.1378 17.0119C36.1209 17.5962 36.1209 20.4034 34.1378 20.9877L33.3802 21.2109C32.7435 21.3986 32.1568 21.7264 31.6633 22.1702C31.1697 22.6141 30.7818 23.1628 30.5278 23.7761C30.2739 24.3894 30.1605 25.0517 30.1958 25.7146C30.2311 26.3774 30.4144 27.024 30.732 27.6068L31.112 28.2979C32.0977 30.1124 30.1145 32.0979 28.2977 31.1099L27.6065 30.7323C27.0236 30.4146 26.3769 30.2315 25.7139 30.1963C25.0509 30.1611 24.3885 30.2748 23.7752 30.529C23.1618 30.7831 22.6132 31.1714 22.1694 31.6652C21.7257 32.159 21.3981 32.7459 21.2107 33.3828L20.9874 34.138C20.4032 36.1212 17.5959 36.1212 17.0117 34.138L16.7884 33.3804C16.6007 32.744 16.2729 32.1577 15.8292 31.6644C15.3855 31.1711 14.8371 30.7833 14.2241 30.5294C13.6111 30.2755 12.9491 30.162 12.2865 30.1971C11.624 30.2322 10.9777 30.415 10.3949 30.7323L9.70142 31.1123C7.88692 32.0979 5.90142 30.1148 6.88942 28.2979L7.26704 27.6068C7.58518 27.0239 7.76877 26.3771 7.80433 25.714C7.8399 25.0509 7.72655 24.3882 7.47259 23.7746C7.21863 23.161 6.83051 22.612 6.33671 22.168C5.84291 21.724 5.25595 21.3961 4.61892 21.2085L3.86129 20.9853C1.87817 20.401 1.87817 17.5938 3.86129 17.0095L4.61892 16.7863C5.25496 16.5984 5.84095 16.2708 6.33401 15.8272C6.82706 15.3837 7.21471 14.8355 7.46857 14.2228C7.72243 13.6102 7.83609 12.9485 7.80122 12.2862C7.76635 11.6239 7.58384 10.9778 7.26704 10.3952L6.88704 9.70166C5.90142 7.88716 7.88454 5.90166 9.70142 6.88966L10.3949 7.26729C10.9777 7.58453 11.624 7.7674 12.2865 7.8025C12.9491 7.8376 13.6111 7.72405 14.2241 7.47015C14.8371 7.21626 15.3855 6.82846 15.8292 6.33515C16.2729 5.84185 16.6007 5.25554 16.7884 4.61916L17.0117 3.86154Z" fill="white"/>
</svg>
