<svg width="32" height="29" viewBox="0 0 32 29" fill="none" xmlns="http://www.w3.org/2000/svg">
<path d="M31.398 13.7575L27.6479 5.0075C27.5517 4.7826 27.3915 4.59092 27.1873 4.45625C26.9831 4.32158 26.7438 4.24987 26.4992 4.25H22.7492V1.75C22.7492 1.41848 22.6175 1.10054 22.3831 0.866117C22.1487 0.631696 21.8307 0.5 21.4992 0.5H1.4992V3H20.2492V18.695C19.6796 19.0257 19.1811 19.466 18.7825 19.9903C18.3839 20.5146 18.093 21.1127 17.9267 21.75H10.0717C9.76746 20.5717 9.04391 19.5448 8.03669 18.8617C7.02946 18.1787 5.80772 17.8865 4.60045 18.0399C3.39318 18.1932 2.28328 18.7816 1.4788 19.6947C0.674309 20.6078 0.230469 21.783 0.230469 23C0.230469 24.217 0.674309 25.3922 1.4788 26.3053C2.28328 27.2184 3.39318 27.8068 4.60045 27.9601C5.80772 28.1135 7.02946 27.8213 8.03669 27.1383C9.04391 26.4552 9.76746 25.4283 10.0717 24.25H17.9267C18.1986 25.3228 18.8205 26.2743 19.6939 26.954C20.5674 27.6336 21.6425 28.0027 22.7492 28.0027C23.8559 28.0027 24.931 27.6336 25.8045 26.954C26.6779 26.2743 27.2998 25.3228 27.5717 24.25H30.2492C30.5807 24.25 30.8987 24.1183 31.1331 23.8839C31.3675 23.6495 31.4992 23.3315 31.4992 23V14.25C31.4993 14.0807 31.4648 13.9131 31.398 13.7575ZM5.2492 25.5C4.75475 25.5 4.2714 25.3534 3.86027 25.0787C3.44915 24.804 3.12872 24.4135 2.9395 23.9567C2.75028 23.4999 2.70077 22.9972 2.79723 22.5123C2.8937 22.0273 3.1318 21.5819 3.48143 21.2322C3.83106 20.8826 4.27652 20.6445 4.76147 20.548C5.24643 20.4516 5.74909 20.5011 6.20591 20.6903C6.66272 20.8795 7.05317 21.2 7.32787 21.6111C7.60258 22.0222 7.7492 22.5055 7.7492 23C7.74854 23.6628 7.48493 24.2983 7.01623 24.767C6.54754 25.2357 5.91204 25.4993 5.2492 25.5ZM22.7492 6.75H25.6742L28.3542 13H22.7492V6.75ZM22.7492 25.5C22.2547 25.5 21.7714 25.3534 21.3603 25.0787C20.9492 24.804 20.6287 24.4135 20.4395 23.9567C20.2503 23.4999 20.2008 22.9972 20.2972 22.5123C20.3937 22.0273 20.6318 21.5819 20.9814 21.2322C21.3311 20.8826 21.7765 20.6445 22.2615 20.548C22.7464 20.4516 23.2491 20.5011 23.7059 20.6903C24.1627 20.8795 24.5532 21.2 24.8279 21.6111C25.1026 22.0222 25.2492 22.5055 25.2492 23C25.2485 23.6628 24.9849 24.2983 24.5162 24.767C24.0475 25.2357 23.412 25.4993 22.7492 25.5ZM28.9992 21.75H27.5717C27.2964 20.6793 26.6735 19.7302 25.8007 19.0516C24.928 18.3729 23.8547 18.0031 22.7492 18V15.5H28.9992V21.75Z" fill="#5362F7"/>
</svg>
