<svg width="17" height="17" viewBox="0 0 17 17" fill="none" xmlns="http://www.w3.org/2000/svg">
<path d="M8.07436 0.00296197C6.71011 0.0194307 3.77708 0.243618 2.13658 1.74865C0.916295 2.95777 0.490232 4.74543 0.440295 6.95596C0.398857 9.15852 0.34892 13.2948 4.33595 14.4211V16.1365C4.33595 16.1365 4.31098 16.8229 4.76467 16.9636C5.32355 17.1406 5.64176 16.6125 6.17301 16.0451L7.16379 14.9247C9.89176 15.1516 11.9812 14.6288 12.2218 14.5512C12.7754 14.3743 15.8933 13.9759 16.4028 9.83906C16.9255 5.56674 16.1483 2.8749 14.7453 1.65727H14.7368C14.3134 1.26734 12.6118 0.0273995 8.81014 0.013587C8.81014 0.013587 8.52804 -0.00553803 8.07436 0.00243072V0.00296197ZM8.12111 1.20412C8.50839 1.20146 8.74373 1.21793 8.74373 1.21793C11.9615 1.22643 13.4974 2.1949 13.8597 2.52109C15.0412 3.53365 15.65 5.9604 15.2043 9.52721C14.7809 12.9857 12.2521 13.2045 11.7841 13.3538C11.5849 13.4176 9.74461 13.8712 7.42623 13.722C7.42623 13.722 5.69967 15.8055 5.15992 16.3421C5.07439 16.4361 4.97451 16.4637 4.91076 16.4499C4.81939 16.4276 4.79176 16.3145 4.79708 16.1593L4.81355 13.3124C1.43214 12.3774 1.63136 8.84934 1.66748 7.00643C1.70892 5.16352 2.05476 3.65584 3.08433 2.63477C4.47036 1.38156 6.96086 1.21262 8.12005 1.20412H8.12111ZM8.37611 3.04649C8.34828 3.04621 8.32067 3.05144 8.29487 3.06188C8.26907 3.07232 8.24559 3.08777 8.22579 3.10732C8.20598 3.12688 8.19025 3.15016 8.17948 3.17583C8.16872 3.20149 8.16314 3.22904 8.16308 3.25687C8.16308 3.37587 8.25976 3.4699 8.37611 3.4699C8.90284 3.45988 9.42635 3.55424 9.91644 3.74754C10.4065 3.94084 10.8535 4.22926 11.2316 4.59615C12.0035 5.34574 12.3796 6.35299 12.394 7.66996C12.394 7.78631 12.488 7.88299 12.607 7.88299V7.87449C12.6631 7.87464 12.7169 7.8526 12.7568 7.81319C12.7967 7.77379 12.8195 7.7202 12.82 7.66412C12.8458 7.04423 12.7453 6.42557 12.5245 5.84574C12.3038 5.26591 11.9675 4.73702 11.536 4.29121C10.695 3.46937 9.62933 3.04596 8.37611 3.04596V3.04649ZM5.57589 3.53365C5.42552 3.51168 5.27216 3.54186 5.14133 3.61918H5.13017C4.82643 3.79722 4.55281 4.02225 4.31948 4.2859C4.12558 4.51009 4.02039 4.73693 3.99276 4.95527C3.97629 5.08543 3.98745 5.21559 4.02623 5.3399L4.04004 5.3484C4.25839 5.99015 4.54367 6.60746 4.89217 7.18865C5.34109 8.00516 5.89355 8.76029 6.53586 9.43531L6.55498 9.46293L6.58526 9.48524L6.60439 9.50756L6.6267 9.52668C7.30417 10.1709 8.06112 10.7259 8.8792 11.1783C9.8142 11.6873 10.3816 11.9279 10.7221 12.0278V12.0331C10.822 12.0634 10.9128 12.0772 11.0042 12.0772C11.2944 12.0559 11.5692 11.9381 11.7846 11.7425C12.0471 11.5091 12.2696 11.2344 12.4434 10.9292V10.9239C12.6065 10.6168 12.5512 10.3262 12.3159 10.1296C11.8445 9.71766 11.3349 9.35174 10.7938 9.03687C10.4315 8.84031 10.0634 8.95931 9.91408 9.15852L9.59586 9.55962C9.43276 9.75884 9.13633 9.73121 9.13633 9.73121L9.12783 9.73652C6.91729 9.17181 6.32761 6.93365 6.32761 6.93365C6.32761 6.93365 6.29998 6.62924 6.50451 6.47412L6.90295 6.15324C7.09367 5.99812 7.22648 5.63049 7.02195 5.26765C6.70926 4.72586 6.34413 4.21607 5.93183 3.74562C5.84169 3.63471 5.71523 3.55925 5.57483 3.53259L5.57589 3.53365ZM8.74373 4.16477C8.46164 4.16477 8.46164 4.59084 8.74639 4.59084C9.09716 4.59653 9.44338 4.67129 9.76525 4.81085C10.0871 4.9504 10.3783 5.15202 10.6222 5.40418C10.8447 5.64962 11.0157 5.93723 11.125 6.24995C11.2344 6.56268 11.2798 6.89417 11.2587 7.22477C11.2596 7.28073 11.2825 7.33407 11.3223 7.37339C11.3621 7.41271 11.4157 7.43488 11.4717 7.43515L11.4802 7.44631C11.5366 7.44589 11.5905 7.42331 11.6304 7.38345C11.6702 7.34359 11.6928 7.28965 11.6932 7.23327C11.7124 6.38912 11.4499 5.68096 10.9351 5.11359C10.4177 4.54621 9.69573 4.22799 8.77401 4.16477H8.74373ZM9.09276 5.31015C8.80217 5.30165 8.79101 5.73621 9.07895 5.74471C9.77914 5.78084 10.1191 6.13465 10.1638 6.86246C10.1647 6.91771 10.1873 6.97038 10.2266 7.0092C10.2659 7.04802 10.3189 7.06991 10.3741 7.07018H10.3826C10.411 7.06896 10.4389 7.0621 10.4647 7.04999C10.4904 7.03788 10.5134 7.02077 10.5325 6.99965C10.5515 6.97853 10.5662 6.95383 10.5755 6.927C10.5849 6.90016 10.5889 6.87172 10.5872 6.84334C10.5372 5.89452 10.0198 5.36009 9.10126 5.31068H9.09276V5.31015Z" fill="#4B5FFE"/>
</svg>
