<svg width="17" height="17" viewBox="0 0 17 17" fill="none" xmlns="http://www.w3.org/2000/svg">
<path d="M7.64272 0.00198529C6.27847 0.018454 3.34544 0.242642 1.70494 1.74767C0.484654 2.9568 0.0585918 4.74445 0.00865426 6.95499C-0.0327832 9.15755 -0.0827208 13.2939 3.90431 14.4201V16.1355C3.90431 16.1355 3.87934 16.8219 4.33303 16.9627C4.8919 17.1396 5.21012 16.6115 5.74137 16.0441L6.73215 14.9237C9.46012 15.1506 11.5495 14.6278 11.7902 14.5503C12.3437 14.3734 15.4617 13.9749 15.9711 9.83808C16.4939 5.56577 15.7167 2.87392 14.3136 1.6563H14.3051C13.8817 1.26636 12.1801 0.0264228 8.3785 0.0126103C8.3785 0.0126103 8.0964 -0.00598346 7.64272 0.00198529ZM7.68947 1.20314C8.07675 1.20049 8.31209 1.21695 8.31209 1.21695C11.5299 1.22545 13.0657 2.19392 13.428 2.52011C14.6095 3.53267 15.2183 5.95942 14.7726 9.52624C14.3492 12.9847 11.8205 13.2035 11.3524 13.3528C11.1532 13.4166 9.31297 13.8703 6.99459 13.721C6.99459 13.721 5.26803 15.8045 4.72828 16.3411C4.64275 16.4351 4.54287 16.4628 4.47912 16.449C4.38775 16.4266 4.36012 16.3135 4.36544 16.1584L4.3819 13.3114C1.0005 12.3764 1.19972 8.84836 1.23584 7.00545C1.27728 5.16255 1.62312 3.65486 2.65269 2.6338C4.03872 1.38058 6.52922 1.21164 7.6884 1.20314H7.68947ZM7.94447 3.04552C7.91664 3.04524 7.88903 3.05047 7.86323 3.06091C7.83743 3.07135 7.81395 3.08679 7.79415 3.10635C7.77434 3.1259 7.75861 3.14918 7.74784 3.17485C7.73708 3.20052 7.7315 3.22806 7.73144 3.25589C7.73144 3.37489 7.82812 3.46892 7.94447 3.46892C8.4712 3.45891 8.99471 3.55327 9.4848 3.74657C9.97489 3.93987 10.4219 4.22828 10.7999 4.59517C11.5718 5.34477 11.948 6.35202 11.9623 7.66899C11.9623 7.78533 12.0563 7.88202 12.1753 7.88202V7.87352C12.2314 7.87366 12.2853 7.85163 12.3252 7.81222C12.3651 7.77281 12.3878 7.71922 12.3884 7.66314C12.4142 7.04325 12.3136 6.42459 12.0929 5.84476C11.8722 5.26493 11.5358 4.73604 11.1043 4.29024C10.2634 3.46839 9.19769 3.04552 7.94447 3.04552ZM5.14425 3.53267C4.99388 3.5107 4.84052 3.54089 4.70969 3.6182H4.69853C4.39479 3.79625 4.12117 4.02127 3.88784 4.28492C3.69394 4.50911 3.58875 4.73595 3.56112 4.9543C3.54465 5.08445 3.55581 5.21461 3.59459 5.33892L3.6084 5.34742C3.82675 5.98917 4.11203 6.60649 4.46053 7.18767C4.90945 8.00418 5.46191 8.75931 6.10422 9.43433L6.12334 9.46195L6.15362 9.48427L6.17275 9.50658L6.19506 9.5257C6.87253 10.1699 7.62948 10.7249 8.44756 11.1774C9.38256 11.6863 9.94993 11.927 10.2905 12.0268V12.0321C10.3903 12.0624 10.4812 12.0762 10.5726 12.0762C10.8628 12.055 11.1375 11.9371 11.353 11.7415C11.6154 11.5082 11.8379 11.2334 12.0117 10.9282V10.9229C12.1748 10.6158 12.1196 10.3252 11.8842 10.1287C11.4129 9.71669 10.9032 9.35076 10.3622 9.03589C9.99987 8.83933 9.63172 8.95833 9.48244 9.15755L9.16422 9.55864C9.00112 9.75786 8.70469 9.73024 8.70469 9.73024L8.69619 9.73555C6.48565 9.17083 5.89597 6.93267 5.89597 6.93267C5.89597 6.93267 5.86834 6.62827 6.07287 6.47314L6.47131 6.15227C6.66203 5.99714 6.79484 5.62952 6.59031 5.26667C6.27762 4.72488 5.91249 4.21509 5.50019 3.74464C5.41005 3.63373 5.28359 3.55827 5.14319 3.53161L5.14425 3.53267ZM8.31209 4.1638C8.03 4.1638 8.03 4.58986 8.31475 4.58986C8.66552 4.59555 9.01174 4.67031 9.3336 4.80987C9.65547 4.94943 9.94668 5.15105 10.1906 5.4032C10.4131 5.64865 10.5841 5.93625 10.6934 6.24898C10.8027 6.5617 10.8482 6.89319 10.827 7.2238C10.828 7.27975 10.8508 7.3331 10.8907 7.37242C10.9305 7.41174 10.9841 7.4339 11.0401 7.43417L11.0486 7.44533C11.1049 7.44491 11.1589 7.42233 11.1987 7.38247C11.2386 7.34261 11.2612 7.28867 11.2616 7.2323C11.2807 6.38814 11.0183 5.67999 10.5035 5.11261C9.98606 4.54524 9.26409 4.22702 8.34237 4.1638H8.31209ZM8.66112 5.30917C8.37053 5.30067 8.35937 5.73524 8.64731 5.74374C9.3475 5.77986 9.6875 6.13367 9.73212 6.86149C9.73309 6.91673 9.75565 6.9694 9.79497 7.00822C9.83429 7.04705 9.88724 7.06894 9.9425 7.0692H9.951C9.9794 7.06799 10.0073 7.06112 10.033 7.04901C10.0587 7.0369 10.0818 7.01979 10.1008 6.99867C10.1199 6.97756 10.1345 6.95286 10.1439 6.92602C10.1533 6.89918 10.1572 6.87074 10.1555 6.84236C10.1056 5.89355 9.58815 5.35911 8.66962 5.3097L8.66112 5.30917Z" fill="#2781B9"/>
</svg>
