<svg width="37" height="33" viewBox="0 0 37 33" fill="none" xmlns="http://www.w3.org/2000/svg">
<path d="M25.6 21.7331L27.6 22.9997L29.6 24.1997L28.8 25.3997L24 22.9997V19.7997V16.7331H25.6V21.7331ZM36.6667 21.7331C36.6667 28.1831 31.45 32.9997 25 32.9997C18.55 32.9997 13.3333 28.1831 13.3333 21.7331C13.3333 21.1664 13.3833 20.6164 13.4667 20.0664H0V0.0664062H30V11.1997C33.9333 13.0831 36.6667 17.0831 36.6667 21.7331ZM14 18.1997C14.3 17.5997 15.0833 15.5664 15.4667 15.0164C15.3167 15.0664 15.1667 15.0664 15 15.0664C12.2333 15.0664 10 12.8331 10 10.0664C10 7.29974 12.2333 5.06641 15 5.06641C17.7667 5.06641 20 7.29974 20 10.0664C20 10.4831 19.9333 10.8997 19.8333 11.2831C21.4 10.5164 23.15 10.0664 25 10.0664C25.5667 10.0664 27.45 10.1164 28 10.1997V6.59971C26.8 6.99974 25.8333 6.19974 25 5.39974C24.1667 4.59974 24 2.99974 24.8 2.19971H4.8C5.6 2.99974 4.8 6.99974 1.6 6.59971V13.3997C2.8 13.3997 3.84785 14.1997 4.4 15.0164C5.2 16.1997 5.2 17.3997 4.8 18.1997H14ZM34.4 21.7331C34.4 17.1331 29.6 11.7997 25 11.7997C20.4 11.7997 15.4667 17.1331 15.4667 21.7331C15.4667 26.3331 20.4 30.9997 25 30.9997C29.6 30.9997 34.4 26.3331 34.4 21.7331Z" fill="#5362F7"/>
</svg>
