<svg width="17" height="17" viewBox="0 0 17 17" fill="none" xmlns="http://www.w3.org/2000/svg">
<path fill-rule="evenodd" clip-rule="evenodd" d="M12.3356 10.088C12.1245 9.98869 11.0897 9.51003 10.897 9.44336C10.7043 9.37736 10.5641 9.34469 10.4231 9.54336C10.2829 9.74069 9.87983 10.1874 9.75729 10.3194C9.63404 10.452 9.5115 10.468 9.30113 10.3694C9.09075 10.2694 8.41217 10.0607 7.60821 9.38603C6.98275 8.86069 6.55988 8.21203 6.43733 8.01336C6.31479 7.81536 6.42388 7.70803 6.52942 7.60936C6.62433 7.52069 6.73979 7.37803 6.84533 7.26269C6.95088 7.14669 6.98558 7.06403 7.05571 6.93136C7.12654 6.79936 7.09113 6.68403 7.038 6.58469C6.98558 6.48536 6.56483 5.51003 6.38917 5.11336C6.21846 4.72736 6.04492 4.78003 5.916 4.77336C5.79275 4.76803 5.6525 4.76669 5.51225 4.76669C5.372 4.76669 5.14392 4.81603 4.95125 5.01469C4.75787 5.21269 4.21458 5.69203 4.21458 6.66736C4.21458 7.64203 4.96825 8.58403 5.07379 8.71669C5.17933 8.84869 6.55775 10.85 8.66929 11.708C9.17221 11.912 9.56392 12.034 9.86921 12.1247C10.3735 12.276 10.8325 12.2547 11.1952 12.2034C11.599 12.1467 12.4405 11.724 12.6161 11.2614C12.7911 10.7987 12.7911 10.402 12.7387 10.3194C12.6862 10.2367 12.546 10.1874 12.3349 10.088H12.3356ZM8.49504 15.0234H8.49221C7.23806 15.0236 6.00693 14.7063 4.92788 14.1047L4.67288 13.962L2.02229 14.6167L2.72992 12.1847L2.56346 11.9354C1.86231 10.8849 1.49125 9.66921 1.49317 8.42869C1.49458 4.79536 4.63533 1.83936 8.49788 1.83936C10.3679 1.83936 12.126 2.52603 13.4477 3.77136C14.0996 4.38241 14.6164 5.10907 14.968 5.90929C15.3196 6.70951 15.4991 7.56741 15.4962 8.43336C15.4948 12.0667 12.354 15.0234 8.49504 15.0234ZM14.4535 2.82536C13.6731 2.08598 12.7445 1.49972 11.7216 1.10056C10.6986 0.701403 9.6017 0.497283 8.49433 0.500027C3.85192 0.500027 0.07225 4.05669 0.0708333 8.42803C0.0686821 9.81919 0.456432 11.1863 1.19496 12.3914L0 16.5L4.46533 15.3974C5.70058 16.0308 7.08482 16.3627 8.4915 16.3627H8.49504C13.1375 16.3627 16.9171 12.806 16.9185 8.43403C16.922 7.39221 16.7059 6.36009 16.2828 5.39738C15.8597 4.43467 15.2379 3.56047 14.4535 2.82536Z" fill="#4B5FFE"/>
</svg>
