<svg width="16" height="16" viewBox="0 0 16 16" fill="none" xmlns="http://www.w3.org/2000/svg">
<path fill-rule="evenodd" clip-rule="evenodd" d="M8 0.156863C6.44878 0.156863 4.93239 0.616845 3.64259 1.47866C2.35279 2.34048 1.34752 3.5654 0.753888 4.99855C0.16026 6.4317 0.00494122 8.0087 0.30757 9.53012C0.6102 11.0515 1.35719 12.4491 2.45407 13.546C3.55095 14.6428 4.94846 15.3898 6.46988 15.6924C7.9913 15.9951 9.56829 15.8397 11.0014 15.2461C12.4346 14.6525 13.6595 13.6472 14.5213 12.3574C15.3831 11.0676 15.8431 9.55123 15.8431 8C15.8408 5.92059 15.0137 3.92702 13.5433 2.45666C12.073 0.986296 10.0794 0.159222 8 0.156863ZM8 14.7736C6.66031 14.7736 5.35069 14.3764 4.23678 13.6321C3.12286 12.8878 2.25467 11.8299 1.74199 10.5922C1.22932 9.35444 1.09518 7.9925 1.35654 6.67855C1.6179 5.3646 2.26302 4.15763 3.21033 3.21032C4.15764 2.26301 5.36458 1.61791 6.67853 1.35655C7.99248 1.09518 9.35444 1.22931 10.5922 1.74199C11.8299 2.25467 12.8878 3.12288 13.6321 4.2368C14.3763 5.35071 14.7736 6.66031 14.7736 8C14.7736 9.79648 14.06 11.5194 12.7897 12.7897C11.5194 14.06 9.79648 14.7736 8 14.7736ZM11.5651 7.64349H8.35651V3.72193C8.35651 3.5801 8.30017 3.44408 8.19988 3.34379C8.0996 3.2435 7.96357 3.18717 7.82175 3.18717C7.67992 3.18717 7.5439 3.2435 7.44361 3.34379C7.34333 3.44408 7.28699 3.5801 7.28699 3.72193V8.71301H11.5651C11.7069 8.71301 11.8429 8.65667 11.9432 8.55639C12.0435 8.4561 12.0998 8.32008 12.0998 8.17825C12.0998 8.03643 12.0435 7.9004 11.9432 7.80012C11.8429 7.69983 11.7069 7.64349 11.5651 7.64349Z" fill="#2781B9"/>
<path fill-rule="evenodd" clip-rule="evenodd" d="M8.00018 0C10.1211 0.00240617 12.1545 0.846003 13.6543 2.34574C15.154 3.84548 15.9976 5.87888 16 7.99982C16 9.58207 15.5308 11.129 14.6518 12.4446C13.7727 13.7602 12.5233 14.7855 11.0615 15.391C9.59966 15.9965 7.99113 16.155 6.43928 15.8463C4.88743 15.5376 3.46197 14.7757 2.34315 13.6569C1.22433 12.5381 0.462403 11.1126 0.153722 9.56072C-0.15496 8.00888 0.00346516 6.40033 0.608966 4.93852C1.21447 3.47671 2.23985 2.22728 3.55544 1.34823C4.87104 0.469182 6.41793 0 8.00018 0ZM7.28699 8.71301V3.72193C7.28699 3.5801 7.34333 3.44408 7.44361 3.34379C7.5439 3.2435 7.67992 3.18717 7.82175 3.18717C7.96357 3.18717 8.0996 3.2435 8.19988 3.34379C8.30017 3.44408 8.35651 3.5801 8.35651 3.72193V7.64349H11.5651C11.7069 7.64349 11.8429 7.69983 11.9432 7.80012C12.0435 7.9004 12.0998 8.03643 12.0998 8.17825C12.0998 8.32008 12.0435 8.4561 11.9432 8.55639C11.8429 8.65667 11.7069 8.71301 11.5651 8.71301H7.28699ZM8.51337 7.48663H11.5651C11.7485 7.48663 11.9244 7.55949 12.0541 7.6892C12.1838 7.81891 12.2567 7.99483 12.2567 8.17825C12.2567 8.36168 12.1838 8.5376 12.0541 8.66731C11.9244 8.79701 11.7485 8.86987 11.5651 8.86987H7.13013V3.72193C7.13013 3.5385 7.20299 3.36258 7.33269 3.23287C7.4624 3.10316 7.63832 3.0303 7.82175 3.0303C8.00517 3.0303 8.1811 3.10316 8.3108 3.23287C8.44051 3.36258 8.51337 3.5385 8.51337 3.72193V7.48663ZM15.8431 8C15.8431 9.55123 15.3831 11.0676 14.5213 12.3574C13.6595 13.6472 12.4346 14.6525 11.0014 15.2461C9.56829 15.8397 7.9913 15.9951 6.46988 15.6924C4.94846 15.3898 3.55095 14.6428 2.45407 13.546C1.35719 12.4491 0.6102 11.0515 0.30757 9.53012C0.00494122 8.0087 0.16026 6.4317 0.753888 4.99855C1.34752 3.5654 2.35279 2.34048 3.64259 1.47866C4.93239 0.616845 6.44878 0.156863 8 0.156863C10.0794 0.159222 12.073 0.986296 13.5433 2.45666C15.0137 3.92702 15.8408 5.92059 15.8431 8ZM4.32392 13.5016C5.41204 14.2287 6.69133 14.6168 8 14.6168C9.75487 14.6168 11.4379 13.9196 12.6788 12.6788C13.9196 11.4379 14.6168 9.75487 14.6168 8C14.6168 6.69133 14.2287 5.41207 13.5016 4.32394C12.7746 3.23582 11.7412 2.38772 10.5321 1.88691C9.32307 1.38611 7.99266 1.25509 6.70913 1.5104C5.42561 1.7657 4.24662 2.39587 3.32125 3.32124C2.39588 4.24661 1.76569 5.42563 1.51039 6.70915C1.25508 7.99268 1.38611 9.32307 1.88692 10.5321C2.38772 11.7412 3.23581 12.7746 4.32392 13.5016ZM4.23678 13.6321C5.35069 14.3764 6.66031 14.7736 8 14.7736C9.79648 14.7736 11.5194 14.06 12.7897 12.7897C14.06 11.5194 14.7736 9.79648 14.7736 8C14.7736 6.66031 14.3763 5.35071 13.6321 4.2368C12.8878 3.12288 11.8299 2.25467 10.5922 1.74199C9.35444 1.22931 7.99248 1.09518 6.67853 1.35655C5.36458 1.61791 4.15764 2.26301 3.21033 3.21032C2.26302 4.15763 1.6179 5.3646 1.35654 6.67855C1.09518 7.9925 1.22932 9.35444 1.74199 10.5922C2.25467 11.8299 3.12286 12.8878 4.23678 13.6321Z" fill="#2781B9"/>
</svg>
